<?xml version="1.0" standalone="no"?>
<!DOCTYPE svg PUBLIC "-//W3C//DTD SVG 20010904//EN"
 "http://www.w3.org/TR/2001/REC-SVG-20010904/DTD/svg10.dtd">
<svg version="1.0" xmlns="http://www.w3.org/2000/svg"
 width="894.000000pt" height="559.000000pt" viewBox="0 0 894.000000 559.000000"
 preserveAspectRatio="xMidYMid meet">

<g transform="translate(0.000000,559.000000) scale(0.100000,-0.100000)"
fill="#000000" stroke="none">
<path d="M0 3483 c0 -2005 1 -2105 18 -2090 15 14 47 21 78 18 23 -2 25 -34 3
-58 l-22 -23 26 0 c15 0 27 -5 27 -10 0 -6 9 -24 21 -39 17 -23 19 -32 10 -50
-17 -31 -36 -26 -56 15 -12 26 -20 33 -29 25 -7 -6 -16 -7 -21 -3 -4 4 -2 -3
4 -15 16 -31 -2 -63 -34 -63 -17 0 -25 -6 -25 -17 0 -13 3 -14 12 -5 14 14 48
16 48 2 0 -22 -24 -59 -41 -63 -17 -5 -19 -16 -19 -142 0 -128 1 -137 22 -158
13 -12 30 -36 39 -52 8 -17 21 -39 27 -50 31 -54 70 -144 64 -149 -9 -10 23
-7 34 3 5 5 26 14 47 21 51 16 67 2 65 -57 -1 -62 12 -71 51 -32 28 28 31 35
22 58 -11 27 -14 61 -12 123 1 33 4 37 34 43 50 11 87 34 87 53 0 24 47 50 99
55 23 2 47 10 52 18 7 11 9 10 10 -6 l0 -20 8 20 c8 19 8 19 15 -2 8 -26 -9
-63 -28 -63 -20 0 -26 -23 -26 -95 0 -44 -5 -68 -16 -79 -8 -9 -16 -26 -18
-39 -1 -13 -6 -28 -10 -35 -5 -8 3 -12 28 -12 19 0 38 -4 41 -10 9 -15 32 -12
39 5 3 8 -4 34 -15 59 -24 56 -20 87 14 104 23 11 27 19 27 58 0 25 5 54 10
64 15 29 96 81 114 74 22 -8 20 2 -5 27 -21 21 -21 31 -4 86 5 16 3 23 -5 23
-18 0 -39 31 -40 58 0 22 -14 30 -24 13 -8 -12 -59 -21 -84 -14 -12 3 -24 15
-28 26 -7 24 -19 36 -52 55 -30 17 -34 15 -27 -8 9 -28 -22 -110 -52 -138 -19
-18 -33 -22 -54 -18 -36 7 -99 47 -99 64 0 6 -4 12 -10 12 -12 0 -14 33 -2 44
4 4 7 11 8 14 1 11 15 46 25 64 11 21 -1 24 -20 6 -11 -10 -13 -10 -7 0 4 6 3
12 -2 12 -5 0 -10 23 -11 50 -1 45 2 52 24 62 26 12 30 19 18 32 -4 3 -8 14
-9 24 -4 22 75 56 113 49 15 -3 32 1 40 9 22 22 54 -3 41 -32 -6 -14 -16 -20
-28 -17 -10 3 -20 -2 -23 -11 -4 -9 -19 -21 -34 -27 -27 -10 -27 -11 -9 -24
10 -8 24 -24 30 -36 12 -25 36 -37 36 -19 0 31 94 76 109 53 18 -28 71 -35 71
-10 1 23 39 57 64 57 32 0 41 -15 41 -70 0 -42 2 -45 28 -48 15 -2 28 1 28 7
2 14 6 29 9 36 1 3 4 10 5 15 1 6 3 15 4 20 2 20 42 50 66 50 14 0 25 4 25 9
0 5 14 11 30 15 17 3 30 12 30 20 0 8 6 19 14 23 7 4 13 19 12 32 -1 17 7 29
23 37 34 18 61 -1 61 -43 0 -17 5 -35 10 -38 19 -12 11 -45 -10 -45 -11 0 -22
1 -24 3 -2 1 -14 -7 -27 -18 -12 -11 -19 -14 -15 -7 5 8 -1 12 -20 12 -21 0
-24 -3 -15 -14 8 -9 8 -21 1 -40 -5 -14 -6 -26 -1 -26 5 0 11 -23 13 -51 l3
-51 -37 6 c-27 5 -38 3 -38 -6 0 -10 -2 -10 -8 0 -5 7 -16 10 -25 6 -10 -3
-25 0 -34 7 -15 12 -16 12 -10 -4 4 -10 7 -23 7 -29 0 -5 10 -8 23 -6 12 1 39
-8 60 -21 29 -17 37 -29 37 -51 0 -16 -5 -32 -12 -36 -14 -9 15 -22 51 -23 13
-1 29 -8 36 -18 11 -14 14 -15 33 -1 12 8 19 18 14 22 -10 11 -9 30 3 39 13
10 -31 47 -56 47 -10 0 -21 5 -24 10 -3 6 -15 10 -26 10 -12 0 -19 7 -19 20 0
13 7 20 20 20 11 0 20 5 20 11 0 6 14 0 31 -12 26 -18 35 -20 50 -11 13 8 19
9 19 1 0 -6 13 -1 29 10 27 20 29 26 26 71 -2 28 -6 54 -9 59 -3 5 1 28 10 52
11 34 13 53 5 84 -14 57 -11 75 16 81 28 7 49 -8 57 -40 10 -42 96 -55 96 -15
0 4 10 23 23 41 24 37 52 41 111 16 17 -7 41 -11 53 -10 16 2 23 -2 23 -12 0
-20 56 -22 63 -3 3 9 8 8 21 -3 14 -14 14 -19 -5 -58 -21 -42 -21 -42 -72 -39
-47 3 -51 5 -54 33 -11 76 -57 38 -73 -61 -16 -93 -15 -88 -23 -101 -4 -7 0
-17 8 -24 12 -10 18 -8 35 11 10 13 19 30 20 37 0 6 8 12 18 12 9 0 30 7 46
15 35 19 31 19 56 -7 l20 -22 -6 46 c-6 41 -4 47 16 58 25 13 42 -2 60 -58 14
-40 42 -57 70 -42 21 11 25 27 14 54 -3 9 -11 13 -18 9 -26 -17 -42 -10 -69
27 -23 32 -26 43 -17 65 6 15 8 30 5 35 -9 15 30 45 55 42 30 -5 51 -20 49
-36 -1 -6 1 -19 6 -29 6 -15 10 -16 16 -5 5 7 9 23 9 34 0 12 6 24 13 27 33
13 127 -62 127 -101 0 -10 -11 -26 -25 -36 -13 -10 -22 -22 -20 -27 3 -4 -4
-14 -15 -22 l-20 -14 19 -47 c22 -51 41 -60 41 -20 0 16 4 23 12 18 6 -4 8 -3
4 4 -11 18 15 60 41 67 49 12 87 -19 78 -64 -3 -19 -1 -21 18 -15 12 5 33 8
47 9 43 1 120 46 119 69 0 25 5 52 15 88 5 17 3 35 -6 50 -7 12 -13 30 -13 38
0 12 -13 15 -58 15 -66 0 -75 -6 -57 -41 10 -18 10 -27 1 -37 -9 -12 -8 -16 4
-21 22 -8 19 -37 -5 -43 -11 -3 -20 -8 -20 -12 0 -15 -76 3 -98 23 -24 21 -25
32 -9 107 6 33 27 48 58 42 19 -3 29 -1 29 6 0 16 47 34 93 35 28 2 46 -5 70
-25 29 -25 32 -32 32 -85 0 -33 -4 -62 -10 -66 -6 -5 -5 -8 3 -8 7 0 10 -5 7
-11 -8 -12 33 -55 42 -45 3 3 16 -5 27 -17 32 -35 81 -32 108 5 11 16 26 27
33 24 8 -3 16 0 19 7 3 7 4 3 1 -8 -4 -17 2 -23 38 -32 48 -13 67 -41 67 -98
0 -25 -4 -35 -16 -35 -11 0 -13 -6 -9 -19 5 -15 2 -18 -13 -14 -11 2 -23 0
-26 -6 -4 -6 -1 -11 7 -11 8 0 22 -9 33 -21 15 -16 20 -18 29 -7 17 21 71 48
98 48 15 0 33 -10 45 -25 l20 -25 6 42 c4 22 9 38 13 35 3 -4 16 5 29 20 40
47 103 32 130 -32 12 -28 10 -32 -15 -60 -29 -31 -49 -85 -32 -85 5 0 13 9 16
20 11 34 56 80 78 80 12 0 38 -8 57 -18 36 -17 47 -47 53 -134 1 -19 8 -28 20
-28 13 0 17 8 17 34 0 46 9 66 29 66 10 0 17 9 18 21 1 12 11 30 22 41 27 24
26 26 -5 51 -15 11 -33 35 -40 53 -8 18 -27 41 -44 50 -16 10 -34 31 -39 46
-6 15 -16 28 -24 28 -45 0 -80 81 -44 104 14 9 21 6 42 -19 21 -25 26 -28 35
-15 5 8 10 33 11 55 3 59 3 59 23 90 10 16 19 38 20 49 1 25 40 34 59 14 7 -7
13 -34 13 -59 1 -45 27 -98 63 -125 8 -6 11 -16 7 -22 -4 -7 -1 -12 8 -12 9 0
16 -7 16 -15 0 -20 4 -19 45 8 19 12 33 28 30 35 -3 7 1 22 7 32 10 15 10 22
1 31 -10 10 -15 6 -22 -15 -6 -14 -18 -29 -26 -33 -19 -7 -66 13 -63 26 2 5
-5 16 -14 23 -26 20 -27 101 -3 129 16 17 28 20 64 16 48 -5 64 -21 56 -54 -7
-29 12 -39 34 -19 16 15 20 15 30 2 7 -8 10 -20 6 -26 -4 -6 -3 -9 2 -8 13 4
53 -25 53 -39 0 -14 57 -63 74 -63 19 0 56 -44 56 -66 0 -41 98 -105 101 -66
1 10 1 21 0 26 -1 4 3 23 9 40 8 24 17 32 37 34 41 3 58 26 54 72 l-3 40 39 0
c21 0 53 -9 72 -21 l33 -20 -7 33 c-3 18 -7 45 -8 61 -1 15 -7 27 -12 27 -18
0 -33 36 -29 71 6 54 11 61 45 57 26 -2 34 -10 47 -42 15 -37 14 -39 -7 -55
-21 -16 -21 -16 19 -13 50 5 85 -22 93 -71 3 -18 9 -44 12 -59 12 -45 -16 -78
-66 -78 -22 0 -50 5 -61 11 -13 7 -24 7 -30 1 -6 -6 1 -12 19 -17 15 -3 31
-12 35 -18 12 -19 9 -65 -4 -70 -8 -4 -7 -6 4 -6 26 -1 48 10 48 25 0 8 5 14
11 14 5 0 8 4 4 9 -10 18 17 23 33 7 15 -15 15 -16 -1 -16 -21 0 -22 -16 -2
-24 38 -14 1 -76 -46 -76 -14 -1 -32 -11 -43 -27 -11 -14 -13 -23 -6 -18 8 5
11 4 7 -2 -6 -9 -60 -11 -77 -3 -3 1 -9 2 -14 1 -17 -3 -46 32 -46 56 0 13 4
22 9 19 5 -3 11 0 14 8 4 9 -5 21 -19 31 -14 9 -23 23 -20 30 2 7 -2 16 -10
19 -9 3 -14 -1 -14 -13 0 -11 -5 -21 -11 -23 -8 -3 -8 -10 2 -26 12 -19 11
-24 -9 -44 -19 -22 -20 -27 -10 -63 16 -53 43 -73 50 -38 2 14 11 10 41 -20
43 -44 62 -43 103 6 34 41 52 47 90 32 l32 -13 5 42 c4 23 3 53 0 66 -4 16 -3
21 5 16 7 -4 12 -1 12 8 0 9 5 16 10 16 6 0 10 9 10 21 0 16 4 19 23 14 12 -4
26 -11 32 -16 12 -12 62 -11 85 1 17 9 21 6 26 -17 4 -16 18 -38 32 -51 19
-18 23 -29 18 -53 -3 -17 -1 -40 6 -52 l11 -21 9 23 c8 24 -6 101 -20 101 -10
0 -42 58 -33 62 13 6 51 66 51 82 0 9 -7 16 -17 16 -9 0 -13 3 -10 7 4 3 2 12
-4 19 -14 17 -3 34 22 34 22 0 42 -16 52 -40 3 -8 5 4 5 27 -1 51 20 75 67 75
19 0 35 2 35 4 0 2 -13 28 -30 58 -50 93 -39 71 -110 241 -49 118 -106 227
-162 308 -51 75 -91 147 -85 153 3 3 28 -9 56 -26 29 -16 57 -30 63 -30 7 0 6
-5 -2 -15 -6 -8 -10 -20 -7 -27 3 -8 6 -6 6 5 1 10 5 16 11 12 5 -3 7 -12 3
-20 -3 -9 1 -15 9 -15 8 0 15 -7 15 -15 0 -8 -5 -15 -11 -15 -5 0 -4 -6 3 -13
11 -10 14 -9 18 1 4 9 11 6 24 -9 25 -29 24 -38 -3 -31 -14 3 -19 2 -14 -6 4
-7 15 -12 24 -13 11 0 12 -3 4 -6 -6 -2 -12 -9 -12 -14 0 -6 8 -5 20 1 14 7
20 7 20 0 0 -5 -4 -10 -10 -10 -5 0 -10 -4 -10 -10 0 -5 7 -10 16 -10 13 0 15
-7 11 -29 -4 -16 -3 -31 2 -33 4 -2 11 -15 15 -30 5 -23 3 -26 -10 -21 -14 5
-15 3 -4 -18 16 -31 46 -60 54 -52 3 4 6 -1 6 -10 0 -9 -4 -19 -10 -22 -16
-10 -12 -28 5 -21 8 3 15 1 15 -4 0 -6 -4 -10 -10 -10 -5 0 -3 -12 5 -27 25
-52 38 -88 36 -100 -1 -8 4 -10 14 -7 9 4 15 3 14 -2 -4 -26 4 -48 27 -71 19
-19 22 -28 13 -33 -17 -11 -3 -40 19 -40 15 0 18 -5 14 -25 -2 -14 0 -25 7
-25 5 0 8 -7 4 -16 -5 -13 -1 -15 18 -9 17 4 20 3 10 -3 -8 -6 -11 -17 -7 -28
6 -16 9 -16 17 -4 7 11 8 7 3 -13 -5 -20 -3 -26 7 -24 8 2 11 2 7 0 -16 -9 -8
-43 10 -43 13 0 14 -2 3 -9 -14 -9 -7 -51 10 -51 5 0 9 -11 9 -25 0 -14 6 -28
14 -31 8 -3 15 -13 14 -22 0 -48 22 -152 32 -152 8 0 20 -32 24 -64 2 -11 8
-22 14 -24 6 -2 8 -10 5 -18 -3 -9 2 -14 13 -15 18 0 18 -1 0 -8 -14 -5 -16
-10 -8 -15 7 -4 10 -12 7 -17 -4 -5 -1 -9 4 -9 15 0 14 -57 -2 -64 -6 -3 -3
-4 9 -1 18 5 21 1 22 -22 3 -67 14 -113 29 -113 9 0 13 -6 9 -15 -3 -8 0 -15
6 -15 7 0 7 -4 0 -12 -6 -7 -11 -17 -12 -23 -4 -23 -10 -16 -10 12 0 19 -6 33
-16 37 -22 9 -23 8 -17 -14 3 -11 9 -20 14 -20 5 0 6 -6 3 -14 -7 -18 23 -76
39 -76 8 0 9 -3 1 -8 -6 -4 -11 -23 -11 -42 0 -19 2 -29 5 -22 7 21 21 13 19
-10 -1 -13 -11 -31 -22 -40 -11 -10 -15 -17 -7 -18 16 0 16 -27 0 -33 -10 -3
-9 -8 2 -22 14 -17 13 -18 -15 -11 -16 4 -37 14 -46 22 -9 8 -18 11 -22 8 -3
-3 -23 6 -44 20 -45 31 -73 34 -73 7 0 -11 -10 -27 -22 -35 -21 -15 -18 -20 7
-17 6 1 1 -6 -9 -14 -19 -15 -19 -15 5 -16 22 -1 22 -1 -5 -9 -16 -5 -33 -15
-37 -22 -6 -9 -9 -7 -9 7 0 11 -4 26 -9 33 -5 9 -8 2 -7 -20 1 -18 8 -39 16
-46 8 -8 10 -11 4 -8 -17 8 -27 -24 -13 -40 9 -11 8 -14 -4 -14 -12 0 -14 -9
-10 -42 2 -24 9 -46 15 -49 23 -15 -35 -20 -152 -13 l-126 7 4 28 c2 17 0 29
-7 29 -11 0 -37 -40 -33 -52 3 -10 -41 -11 -1473 -14 -1293 -4 -1495 -1 -1495
22 0 13 -18 54 -72 159 -24 45 -47 75 -60 75 -12 0 -10 -48 4 -73 10 -20 10
-21 -5 -8 -13 10 -17 10 -17 1 0 -7 -7 -10 -16 -6 -8 3 -12 2 -9 -4 10 -16
-21 -11 -35 5 -17 20 -66 19 -74 -1 -3 -8 -1 -24 4 -35 6 -11 8 -24 5 -29 -3
-6 -1 -10 4 -10 6 0 11 5 11 10 0 6 6 10 14 10 8 0 21 6 29 14 19 20 47 22 80
6 36 -18 34 -26 -10 -40 -51 -17 -54 -21 -44 -57 11 -37 2 -43 -62 -43 -53 0
-89 10 -85 22 4 10 42 33 72 43 19 5 19 6 -2 21 -13 8 -35 18 -49 20 -15 3
-30 9 -33 14 -6 10 -29 8 -48 -4 -15 -9 -14 -10 -30 26 -10 25 -14 27 -35 17
-25 -11 -73 -83 -83 -124 -6 -23 -10 -25 -69 -25 -58 0 -64 2 -67 23 -3 19 -9
22 -48 22 -37 0 -47 -4 -55 -22 -8 -20 -17 -23 -60 -23 l-50 0 -1 45 c0 25 3
45 8 45 5 0 4 9 -2 19 -8 16 -6 22 7 30 23 13 14 14 -23 2 -16 -5 -42 -12 -58
-16 l-29 -6 22 -20 c26 -24 26 -30 1 -61 -10 -14 -17 -28 -14 -30 10 -10 -175
-16 -271 -9 -55 4 -83 9 -62 11 51 4 49 3 82 26 17 12 47 24 67 28 38 7 62 26
34 26 -9 0 -16 5 -16 10 0 14 -46 3 -100 -25 -25 -12 -65 -25 -90 -29 -47 -7
-73 -22 -64 -37 3 -5 -2 -9 -10 -9 -11 0 -16 -9 -16 -30 l0 -30 4470 0 4470 0
0 2795 0 2795 -4470 0 -4470 0 0 -2107z m575 1997 c-3 -5 -12 -10 -18 -10 -7
0 -6 4 3 10 19 12 23 12 15 0z m5549 -189 c36 -15 62 -34 80 -59 14 -20 23
-38 21 -41 -3 -2 -12 4 -19 15 -8 10 -18 16 -22 12 -4 -4 -2 -14 4 -21 7 -8 9
-16 6 -20 -3 -3 0 -15 6 -27 19 -36 4 -33 -19 3 -12 19 -29 38 -39 41 -9 3
-28 13 -42 21 -22 12 -27 12 -42 -2 -10 -9 -18 -12 -18 -8 0 5 -5 4 -12 -3
-17 -17 -31 -15 -24 3 3 9 0 15 -9 15 -17 0 -20 -35 -5 -45 6 -3 10 -14 10
-25 0 -13 13 -23 45 -33 64 -22 134 -73 152 -113 9 -19 20 -34 24 -34 4 0 34
-37 68 -82 34 -46 66 -88 71 -95 6 -7 10 -29 10 -49 0 -27 -5 -37 -20 -41 -11
-3 -20 -10 -20 -15 0 -12 103 -109 150 -140 18 -13 42 -35 53 -50 24 -32 14
-58 -11 -28 -16 19 -23 20 -97 12 -74 -8 -81 -7 -99 12 -18 20 -19 20 -11 1 4
-11 11 -38 16 -60 15 -75 15 -75 84 -75 57 0 66 -3 84 -26 25 -32 25 -34 7
-60 -12 -15 -17 -17 -27 -6 -11 10 -10 12 4 12 24 0 21 27 -3 35 -10 3 -35 2
-55 -4 -19 -5 -33 -6 -30 -1 3 4 -6 10 -20 12 -33 7 -52 -17 -52 -67 -1 -35 5
-45 55 -92 57 -53 89 -70 116 -60 11 4 20 -12 35 -59 22 -71 18 -99 -22 -143
-36 -39 -173 -96 -264 -110 -89 -14 -120 -36 -141 -97 -10 -31 -3 -143 14
-208 l7 -28 61 60 c98 96 186 140 334 168 144 27 255 0 309 -75 15 -20 30 -40
34 -45 4 -5 21 7 37 26 17 18 52 44 79 55 159 71 222 93 266 93 44 0 53 5 132
73 66 57 118 90 249 156 96 47 179 96 196 114 17 18 65 67 108 109 43 42 96
103 117 135 22 32 46 64 53 71 6 8 17 22 22 32 11 21 29 198 20 203 -3 2 1 2
8 1 15 -4 55 33 47 45 -3 5 -20 5 -39 1 -50 -11 -58 19 -16 60 14 14 59 80 80
118 26 46 24 44 63 47 17 1 27 -3 27 -12 0 -8 -4 -12 -9 -8 -5 3 -12 1 -16 -4
-3 -6 -13 -8 -23 -5 -16 5 -16 5 1 -9 20 -17 22 -27 3 -27 -9 0 -12 -8 -8 -26
3 -18 9 -24 21 -19 9 3 5 -4 -9 -16 -14 -11 -20 -18 -13 -15 6 4 14 2 18 -4 3
-5 2 -10 -3 -10 -6 0 -8 -9 -5 -19 3 -12 -3 -26 -15 -37 -22 -18 -19 -46 3
-38 8 3 19 -3 26 -14 7 -11 18 -18 24 -15 17 6 28 -28 15 -41 -8 -8 -9 -6 -5
5 5 13 1 15 -19 12 -14 -3 -26 -1 -26 4 0 16 -38 9 -49 -9 -6 -10 -7 -18 -2
-18 5 0 12 6 14 13 3 6 5 0 4 -15 -1 -16 -5 -28 -9 -28 -4 0 -8 -7 -8 -16 0
-8 5 -12 10 -9 6 3 10 0 10 -8 0 -9 -9 -14 -22 -13 -35 3 -39 -3 -18 -27 11
-11 25 -38 31 -59 5 -21 14 -38 20 -38 6 0 8 -8 5 -17 -4 -12 4 -24 24 -38 31
-21 39 -40 18 -47 -8 -3 -4 -12 10 -26 12 -12 18 -22 12 -22 -5 0 -10 -5 -10
-11 0 -5 6 -7 13 -4 6 4 -1 -5 -17 -20 -15 -14 -25 -29 -22 -33 4 -3 11 0 16
8 5 8 12 12 15 8 10 -10 -27 -40 -42 -34 -8 4 -17 -4 -23 -20 -5 -13 -22 -36
-36 -49 -24 -23 -27 -32 -27 -95 0 -39 -4 -70 -10 -70 -5 0 -4 -7 3 -15 10
-13 7 -17 -22 -29 -19 -8 -46 -18 -62 -22 -30 -7 -27 -16 7 -21 12 -2 26 -9
32 -15 7 -8 6 -9 -3 -4 -22 13 -42 -12 -32 -39 8 -20 6 -25 -13 -30 -48 -14
-230 -112 -265 -142 -20 -18 -44 -35 -53 -38 -9 -3 -20 -16 -23 -28 -6 -21 -7
-21 -20 -4 -13 17 -15 17 -43 1 -16 -10 -38 -35 -49 -57 -24 -51 -38 -56 -55
-17 -8 17 -21 30 -31 30 -10 0 -18 5 -18 11 0 14 -25 39 -39 39 -6 0 -11 -5
-11 -12 0 -6 -7 -3 -15 8 -9 12 -18 15 -22 9 -5 -5 -19 -10 -33 -10 -17 0 -24
-5 -22 -15 3 -12 1 -12 -9 -3 -14 14 -59 -3 -59 -24 0 -7 -4 -13 -10 -13 -5 0
-10 5 -10 11 0 5 -5 7 -12 3 -9 -6 -9 -9 0 -12 18 -6 14 -21 -5 -21 -25 0 -65
-7 -85 -16 -19 -8 -24 -25 -8 -25 6 0 10 -4 10 -10 0 -5 -7 -7 -16 -3 -9 3
-20 0 -25 -8 -6 -10 -9 -10 -9 -1 0 6 -4 12 -10 12 -5 0 -10 -7 -10 -15 0 -17
-58 -30 -95 -21 -19 5 -28 1 -41 -19 -9 -14 -21 -25 -26 -25 -5 0 -18 -10 -28
-22 l-18 -23 -11 28 c-6 15 -12 27 -13 27 -2 0 -1 -44 3 -97 6 -109 5 -179 -5
-205 -14 -40 -14 -47 -4 -50 8 -3 6 -17 -5 -47 -10 -25 -13 -40 -6 -35 7 4 10
1 7 -7 -3 -8 -13 -16 -23 -17 -10 -2 -15 0 -11 6 3 6 2 13 -4 17 -19 12 -10
-24 10 -38 20 -14 20 -15 -10 -21 -17 -3 -29 -10 -25 -15 3 -5 -9 -11 -27 -13
-18 -2 -31 -7 -30 -12 2 -5 -2 -13 -10 -17 -10 -7 -9 -9 4 -9 21 0 32 17 16
23 -7 3 -3 6 10 6 25 1 26 -2 12 -29 -15 -28 10 -44 46 -29 27 10 27 12 9 19
-11 4 -27 5 -35 3 -9 -3 -8 0 3 7 10 6 25 9 33 6 8 -3 14 -1 14 4 0 6 5 10 10
10 6 0 10 -9 10 -20 0 -14 9 -20 33 -24 29 -5 45 -4 97 4 9 1 4 5 -10 10 -23
7 -23 8 -3 9 12 1 25 -4 28 -9 4 -7 14 -6 28 2 12 7 27 11 33 10 6 -1 24 5 40
13 16 8 35 15 42 15 6 0 12 5 12 10 0 6 6 10 13 9 23 -4 107 45 129 76 5 6 8
6 8 -2 0 -16 -75 -75 -129 -103 -72 -36 -227 -71 -331 -75 -53 -2 -88 0 -81 5
10 6 6 12 -17 24 -45 23 -52 20 -47 -19 5 -33 3 -34 -23 -31 -15 2 -34 7 -43
11 -10 3 -20 2 -24 -4 -3 -6 -1 -11 5 -11 7 0 9 -7 6 -16 -5 -13 -1 -15 24
-12 24 4 30 1 25 -10 -3 -9 0 -12 9 -9 10 4 13 1 9 -9 -7 -18 -13 -18 -29 4
-13 16 -15 16 -29 -2 -15 -20 -15 -20 -16 0 -1 16 -2 16 -6 2 -2 -10 -10 -15
-19 -11 -18 7 -18 -4 1 -23 8 -9 15 -11 15 -5 0 6 12 11 28 10 25 0 25 -1 6
-9 -12 -5 -25 -13 -29 -19 -3 -6 -15 -11 -26 -11 -11 0 -17 5 -14 10 3 6 -2
13 -12 17 -10 3 -21 12 -25 18 -4 7 -19 10 -33 7 -19 -3 -25 0 -25 13 0 17 -1
17 -22 -1 -19 -17 -21 -17 -15 -1 8 22 -2 22 -18 0 -8 -11 -14 -13 -19 -5 -4
7 -3 12 2 12 6 0 8 9 5 20 -6 23 -16 25 -45 9 -19 -10 -20 -9 -16 20 3 23 2
28 -8 21 -8 -8 -13 -2 -16 20 -3 16 -1 30 4 30 4 0 8 4 8 10 0 5 -7 7 -15 4
-18 -7 -20 7 -2 25 10 11 7 13 -15 9 -19 -4 -25 -1 -21 9 3 7 0 13 -6 13 -6 0
-11 4 -11 10 0 5 8 6 17 3 12 -5 15 -2 10 10 -3 9 -3 17 1 17 5 0 8 47 8 105
-1 77 -4 105 -13 105 -9 0 -13 -21 -13 -71 0 -81 -20 -135 -57 -152 -29 -13
-29 -20 0 -36 48 -26 57 -58 57 -208 1 -99 5 -149 16 -178 34 -87 34 -85 -39
-85 -36 0 -73 3 -82 6 -34 13 -44 57 -46 205 -2 143 -9 187 -32 201 -7 4 -33
8 -59 8 l-48 0 0 -210 0 -210 -85 0 -85 0 0 182 c0 100 -3 178 -7 175 -3 -4
-6 -23 -5 -43 1 -26 -5 -42 -18 -54 -16 -14 -17 -19 -6 -23 24 -9 7 -52 -26
-65 -19 -7 -27 -15 -23 -24 4 -7 -6 1 -22 18 -16 16 -35 28 -41 26 -6 -2 -21
3 -34 12 -16 11 -25 13 -35 4 -9 -7 -13 -7 -13 1 0 6 -6 11 -14 11 -9 0 -12 9
-10 28 2 15 1 21 -2 15 -3 -7 -12 -13 -20 -13 -9 0 -13 4 -10 9 3 5 -6 17 -19
27 -29 21 -33 36 -8 27 14 -5 13 -1 -5 24 -12 17 -22 37 -22 45 0 10 3 10 11
-2 8 -12 9 -10 4 8 -8 26 19 54 45 47 8 -3 29 -1 45 4 24 8 15 9 -47 10 l-78
1 0 -151 0 -150 118 2 117 1 3 -76 3 -76 -206 0 -205 0 -1 468 c-1 257 -4 454
-6 437 -6 -48 -24 -76 -45 -69 -14 4 -18 0 -18 -20 0 -14 3 -26 8 -26 4 -1 17
-9 30 -19 26 -22 20 -55 -8 -46 -13 4 -17 1 -16 -12 0 -10 5 -21 10 -24 5 -4
5 -12 1 -19 -11 -18 -46 24 -39 47 5 14 4 15 -4 4 -14 -19 -28 -7 -35 29 -8
39 0 60 24 60 22 0 26 25 5 33 -8 3 -21 25 -28 49 -11 38 -14 -6 -18 -347 -5
-386 -5 -391 -29 -438 -46 -93 -157 -142 -266 -118 -67 15 -131 61 -159 116
-20 38 -21 59 -26 470 -3 237 -7 422 -8 412 -1 -10 -6 -16 -11 -13 -5 3 -14
-1 -21 -9 -14 -17 -56 -20 -65 -5 -3 5 -12 7 -20 4 -7 -3 -24 0 -37 8 -13 7
-27 13 -33 14 -5 1 -25 7 -43 14 -26 10 -31 15 -20 22 10 8 9 9 -4 4 -10 -3
-18 -1 -18 4 0 6 -12 10 -27 11 -27 0 -27 1 -5 9 12 5 22 13 22 19 0 5 10 12
23 16 20 6 20 8 -12 18 -25 8 -54 8 -110 -1 -107 -16 -113 -18 -151 -41 -19
-11 -50 -28 -67 -38 -39 -20 -40 -28 -8 -68 l24 -30 33 32 c64 62 162 85 251
59 71 -21 114 -57 143 -121 23 -49 24 -54 24 -388 0 -228 -4 -345 -11 -359
-13 -24 1 -38 39 -38 22 0 23 -3 20 -57 -3 -58 -3 -58 -40 -67 -28 -7 -48 -5
-82 8 -41 16 -48 16 -91 2 -25 -9 -65 -16 -88 -16 -55 0 -135 38 -171 81 -55
65 -56 70 -56 446 l0 348 -28 2 c-62 6 -96 25 -105 58 -2 11 -5 -191 -6 -448
l-1 -468 -67 3 -66 3 -106 287 -106 286 -3 -289 -2 -289 -75 0 -75 0 0 494 c0
298 -4 497 -9 501 -6 3 -13 0 -18 -8 -22 -34 -136 -43 -173 -12 -35 29 -43 25
-14 -6 70 -75 69 -68 72 -446 2 -229 -1 -356 -8 -384 -22 -81 -133 -159 -225
-159 -103 0 -212 73 -234 157 -8 28 -12 158 -11 378 0 287 -2 334 -14 329 -8
-3 -12 -12 -9 -20 9 -25 -73 29 -97 63 -13 19 -24 32 -26 30 -2 -1 4 -22 12
-46 10 -29 14 -73 12 -135 l-3 -91 -70 0 -70 0 -3 80 c-1 44 -4 90 -7 103 -7
30 -62 54 -101 43 -53 -14 -54 -27 -52 -379 l3 -324 25 -20 c18 -15 33 -18 60
-14 57 9 70 34 70 136 l0 88 68 4 c37 2 71 2 76 0 5 -3 6 -56 4 -118 -5 -101
-8 -117 -33 -157 -50 -78 -131 -115 -229 -102 -86 11 -150 56 -192 135 -17 32
-19 66 -22 358 -4 377 1 407 72 478 42 43 116 73 180 75 33 1 30 3 -19 14 -27
7 -28 8 -10 15 19 7 18 9 -7 19 -16 6 -28 16 -28 22 0 8 -4 8 -15 -1 -9 -7
-19 -10 -22 -6 -4 4 -2 11 5 15 8 5 -10 17 -53 35 -36 16 -65 32 -65 37 0 5
-17 9 -37 9 -34 1 -36 2 -20 14 15 11 15 15 3 19 -9 4 -12 14 -9 26 6 22 -6
28 -23 11 -15 -15 -44 -1 -44 20 0 12 -9 20 -22 22 -13 2 -22 8 -21 14 1 6 -6
10 -15 10 -48 0 -73 5 -68 13 11 18 -6 41 -31 41 -13 0 -22 4 -19 9 3 5 -14
28 -37 52 -24 24 -48 55 -54 69 -7 14 -12 19 -12 12 -1 -7 -5 -11 -11 -7 -5 3
-7 12 -4 20 4 9 0 12 -14 8 -12 -3 -22 1 -25 11 -4 9 -2 16 3 16 5 0 7 6 4 14
-3 8 -13 12 -25 9 -10 -3 -19 -1 -19 5 0 5 -11 13 -25 16 -16 4 -25 13 -25 25
0 28 -27 51 -59 51 -16 0 -34 7 -41 15 -7 8 -17 15 -23 15 -5 0 -20 11 -32 25
-12 15 -31 27 -43 28 -11 0 -18 5 -16 9 3 4 -3 8 -13 8 -19 0 -93 72 -93 91 0
8 -5 8 -15 -1 -21 -17 -29 -7 -16 18 14 26 14 65 1 57 -11 -7 -40 12 -40 25 0
5 10 6 22 2 17 -4 20 -2 15 11 -4 10 -2 17 3 17 6 0 10 -4 10 -10 0 -5 12 -9
28 -9 23 2 24 2 4 6 -12 2 -20 9 -17 14 4 5 -1 9 -9 9 -9 0 -16 5 -16 10 0 6
7 10 15 10 8 0 15 5 15 11 0 5 4 8 10 4 5 -3 6 -13 3 -23 -4 -11 1 -9 15 7 12
13 22 19 22 13 0 -7 5 -12 10 -12 7 0 7 7 -1 22 -10 18 -9 20 4 15 9 -3 18 -1
20 6 6 16 62 -25 62 -44 0 -8 9 -26 20 -39 21 -26 98 -80 114 -80 6 0 14 -6
18 -13 4 -6 34 -32 67 -57 32 -24 70 -57 85 -73 22 -25 61 -55 120 -92 8 -5
51 -36 94 -67 43 -31 104 -66 135 -78 94 -35 452 -218 522 -268 36 -25 85 -62
110 -82 25 -21 75 -52 112 -69 73 -35 86 -35 149 5 62 39 136 55 274 61 177 7
437 -30 528 -76 l60 -29 136 69 c121 63 146 71 226 82 50 7 160 12 245 12 129
-1 168 -4 231 -22 l76 -22 104 45 c57 25 128 56 156 71 69 33 143 99 143 125
0 20 1 20 18 5 25 -23 32 -21 32 7 0 23 3 24 44 21 24 -1 50 2 57 7 10 6 7 7
-8 3 -17 -5 -23 -2 -23 9 0 9 -7 16 -16 16 -8 0 -12 5 -9 10 3 6 18 10 33 10
21 0 24 2 12 10 -10 6 -11 10 -2 10 7 0 12 13 12 30 0 39 11 38 31 -5 13 -27
13 -35 3 -39 -7 -3 -12 -18 -12 -35 1 -27 3 -29 35 -26 28 3 32 1 22 -11 -6
-8 -9 -14 -6 -14 3 0 13 -3 23 -7 13 -5 16 -3 12 9 -4 9 -2 20 4 26 8 8 0 10
-27 9 -29 -2 -39 2 -40 15 -2 11 2 15 11 11 8 -3 14 0 14 6 0 6 12 11 28 11
25 -1 26 -2 9 -14 -16 -13 -16 -14 5 -19 17 -5 20 -9 11 -18 -9 -9 -6 -18 12
-37 20 -21 22 -29 13 -51 -6 -14 -21 -36 -34 -47 -12 -12 -20 -25 -16 -29 3
-3 1 -10 -6 -14 -7 -4 -14 -18 -15 -29 -1 -12 -6 -22 -12 -22 -11 0 -37 -52
-42 -85 -2 -11 -8 -24 -13 -29 -6 -6 -10 -19 -11 -30 0 -12 -3 -15 -6 -8 -4
10 -8 9 -19 -5 -13 -17 -13 -17 -14 0 0 9 -8 17 -17 17 -15 0 -16 -2 -3 -10
10 -7 11 -10 2 -10 -7 0 -15 6 -18 13 -7 20 -74 16 -74 -4 0 -8 -5 -20 -11
-26 -8 -8 -1 -21 26 -49 25 -25 39 -34 44 -26 5 9 61 12 207 10 l199 -3 3 -72
3 -73 -121 0 -120 0 0 -135 0 -135 73 0 c39 0 78 4 86 9 8 5 -8 8 -44 7 -48
-1 -60 3 -78 23 l-22 24 25 -16 c17 -11 30 -13 40 -7 12 8 11 10 -7 10 -27 0
-63 48 -63 84 0 23 4 26 33 26 21 0 44 -10 67 -30 19 -17 51 -35 70 -40 19 -5
56 -14 82 -21 47 -11 56 -22 63 -72 1 -12 8 -35 14 -50 6 -16 12 -43 13 -60 2
-18 5 94 8 248 l5 280 113 3 114 3 -8 62 c-9 75 -9 96 0 122 l7 20 -15 -20
c-48 -63 -47 -63 -40 -32 5 23 4 26 -11 21 -14 -6 -12 2 9 34 14 23 26 45 26
49 0 3 6 14 13 22 13 15 37 87 37 107 0 5 -9 -2 -20 -16 -11 -14 -20 -20 -20
-13 0 33 64 68 180 98 146 38 215 62 213 74 -3 11 38 38 47 30 3 -2 10 8 17
23 15 29 8 58 -13 58 -8 0 -28 10 -44 22 -21 15 -29 28 -26 44 5 26 -17 49
-35 38 -8 -5 -9 -3 -4 6 6 10 4 12 -9 7 -11 -5 -28 3 -48 22 -24 22 -31 38
-34 75 -2 26 -10 54 -19 62 -8 9 -18 26 -21 39 -3 13 -15 25 -26 28 -11 3 -17
10 -13 16 3 6 11 9 16 6 5 -3 6 1 3 10 -4 9 1 24 10 33 14 17 14 20 0 40 -11
16 -22 21 -35 17 -12 -4 -19 -2 -19 7 -1 9 -5 7 -14 -4 -14 -18 -27 -24 -25
-10 3 19 -2 23 -17 12 -8 -8 -14 -9 -13 -4 4 19 -14 44 -32 44 -11 0 -19 7
-19 16 0 12 -6 15 -25 10 -35 -9 -33 17 4 43 24 17 38 20 77 14 34 -4 45 -3
40 5 -4 7 -18 12 -32 12 -14 0 -22 4 -19 10 4 6 23 7 45 4 21 -4 53 -2 70 4
26 10 33 8 48 -8 9 -11 25 -20 35 -20 10 0 28 -5 40 -11 19 -9 20 -8 6 3 -74
61 -78 67 -78 99 -1 65 -13 120 -28 126 -18 7 -145 -23 -186 -44 -16 -8 -30
-13 -31 -11 -19 32 -28 60 -21 65 4 5 10 2 12 -5 7 -18 23 -4 23 19 0 10 4 19
8 19 5 0 9 7 9 15 0 8 -4 15 -8 15 -4 0 -22 14 -40 31 -19 18 -66 47 -106 66
-40 19 -83 47 -97 64 -16 18 -30 27 -40 23 -9 -3 -16 -1 -16 5 0 22 -30 11
-36 -13 -8 -33 -30 -40 -40 -13 -6 18 -8 14 -11 -20 -5 -48 -20 -57 -26 -15
-2 17 -5 8 -6 -23 -3 -48 -3 -49 -13 -20 -5 17 -10 36 -10 43 -1 6 -5 12 -9
12 -12 0 -19 -29 -9 -35 6 -4 10 -11 10 -18 0 -6 -7 -2 -15 9 -8 10 -15 15
-15 9 0 -5 -5 -3 -10 5 -8 12 -10 10 -11 -10 0 -14 -3 -19 -6 -12 -2 6 -9 12
-14 12 -6 0 -7 -5 -3 -11 14 -23 -19 -27 -38 -6 l-19 22 6 -22 c4 -14 2 -23
-4 -23 -6 0 -11 -8 -11 -17 0 -15 -2 -16 -10 -3 -6 10 -6 16 0 18 6 2 10 8 10
14 0 6 -9 3 -20 -7 -11 -10 -20 -14 -20 -9 0 5 -7 -1 -15 -13 -8 -12 -12 -29
-8 -39 5 -14 2 -16 -15 -12 -12 4 -22 3 -22 -1 0 -4 -20 -7 -45 -6 -47 3 -52
-4 -45 -55 1 -8 -1 -12 -6 -8 -4 4 -13 3 -21 -3 -10 -9 -13 -6 -13 12 -1 13
-7 35 -14 48 -11 19 -14 21 -19 7 -3 -8 -2 -18 3 -21 6 -4 10 -16 10 -28 -1
-21 -1 -21 -15 3 -13 24 -13 22 -8 -20 6 -43 5 -44 -12 -30 -16 14 -17 13 -11
-8 5 -16 4 -22 -6 -20 -9 2 -12 -7 -10 -29 1 -19 -3 -33 -9 -33 -13 0 -2 -39
17 -58 20 -19 17 -24 -5 -12 -22 11 -33 52 -26 92 4 21 2 26 -12 23 -10 -2
-24 -4 -30 -4 -7 -1 -13 -8 -13 -16 0 -8 -4 -15 -8 -15 -5 0 -14 -16 -22 -35
-8 -19 -17 -35 -21 -35 -4 0 -5 -9 -2 -20 4 -15 0 -20 -17 -20 -16 0 -20 5
-16 18 3 9 10 37 15 60 5 24 19 54 30 66 12 12 21 32 21 44 0 12 4 22 10 22 5
0 9 3 8 8 -2 11 24 62 33 62 4 0 22 24 40 53 49 77 98 121 154 142 28 10 65
30 84 44 79 61 113 83 134 85 12 2 39 11 59 20 21 9 44 16 52 16 8 0 18 5 21
10 3 6 25 10 48 10 31 0 66 12 122 41 70 37 85 41 129 36 28 -2 60 -1 71 3 12
5 23 3 27 -5 4 -7 32 -22 62 -34z m27 19 l24 -21 -32 16 c-32 15 -42 25 -24
25 5 0 19 -9 32 -20z m-5687 -35 c-10 -8 -25 -15 -32 -15 -7 0 -29 -11 -50
-23 -20 -13 -48 -29 -62 -36 -53 -26 31 33 94 66 61 31 87 36 50 8z m-174 -95
c0 -5 -8 -10 -17 -10 -15 0 -16 2 -3 10 19 12 20 12 20 0z m1270 2 c0 -14 -23
-32 -41 -32 -26 0 -99 -42 -99 -57 0 -7 -4 -13 -9 -13 -5 0 -17 -7 -26 -16 -9
-9 -31 -20 -48 -24 l-32 -8 30 -1 29 -1 -22 -16 c-13 -9 -26 -14 -29 -11 -3 3
-16 -5 -30 -19 -13 -13 -36 -24 -50 -24 l-26 0 24 -18 c13 -10 38 -24 54 -31
29 -13 29 -14 9 -21 -12 -5 -25 -13 -29 -19 -3 -6 -18 -11 -32 -11 -30 0 -181
-89 -226 -134 -34 -34 -64 -41 -59 -14 1 10 -8 19 -25 23 -21 6 -24 9 -10 12
9 3 17 9 17 14 0 5 9 9 20 9 11 0 20 7 20 16 0 9 -5 12 -12 8 -7 -4 -3 4 8 17
12 13 32 38 45 54 60 76 182 183 254 224 123 71 295 125 295 93z m4487 -44
c-3 -8 -6 -5 -6 6 -1 11 2 17 5 13 3 -3 4 -12 1 -19z m2647 -40 c22 -31 20
-41 -4 -26 -16 10 -24 10 -40 0 -11 -6 -26 -12 -33 -12 -24 0 -77 -31 -77 -44
0 -7 -9 -21 -19 -30 -12 -11 -17 -25 -14 -39 5 -22 5 -22 -11 -2 -10 11 -15
15 -12 8 4 -6 0 -13 -9 -15 -11 -2 -6 -14 21 -48 19 -25 40 -47 45 -49 6 -2
22 10 37 26 28 30 122 93 139 93 5 0 15 11 21 25 17 36 73 35 102 -2 20 -26
20 -28 4 -40 -15 -11 -20 -11 -27 3 -19 33 -137 -7 -137 -46 0 -5 -5 -10 -11
-10 -5 0 -8 -4 -5 -8 2 -4 -8 -13 -24 -20 -20 -9 -27 -18 -23 -31 4 -15 0 -18
-19 -14 -14 3 -32 -3 -44 -14 -17 -14 -19 -23 -12 -43 5 -13 16 -32 24 -41 10
-11 11 -19 5 -23 -5 -4 -21 9 -36 28 -33 44 -57 54 -53 24 2 -17 -4 -25 -25
-32 -23 -8 -30 -7 -42 11 -8 12 -28 26 -45 31 -27 10 -28 9 -18 -7 6 -10 23
-26 39 -36 24 -17 83 -105 60 -91 -12 8 -34 -21 -26 -34 3 -5 1 -10 -4 -10 -6
0 -11 5 -11 10 0 6 -4 10 -10 10 -5 0 -10 -6 -10 -14 0 -20 -22 -25 -38 -9
-11 11 -11 17 -2 28 10 12 9 15 -4 15 -10 0 -14 5 -11 10 3 6 0 10 -7 10 -7 1
-23 9 -35 19 -20 17 -22 22 -11 52 6 19 17 39 24 44 7 6 15 21 17 35 8 42 19
70 28 70 5 0 9 5 9 10 0 6 9 19 20 30 24 24 26 40 5 40 -8 0 -15 4 -15 9 0 5
-28 16 -62 23 -67 15 -82 30 -48 48 28 15 81 -2 126 -42 l34 -30 78 71 c109
98 167 121 196 79z m-2540 -4 c3 -8 2 -12 -4 -9 -6 3 -10 10 -10 16 0 14 7 11
14 -7z m64 -15 c-3 -8 -7 -3 -11 10 -4 17 -3 21 5 13 5 -5 8 -16 6 -23z m2459
-41 c-3 -8 -6 -5 -6 6 -1 11 2 17 5 13 3 -3 4 -12 1 -19z m-3457 -12 c0 -3 -4
-8 -10 -11 -5 -3 -10 -1 -10 4 0 6 5 11 10 11 6 0 10 -2 10 -4z m653 -58 c8
-29 5 -31 -24 -10 -13 9 -31 17 -39 17 -9 0 -16 11 -18 27 l-3 27 39 -19 c23
-11 42 -29 45 -42z m-5333 -14 c-11 -13 -11 -17 -1 -24 8 -4 9 -10 4 -13 -5
-4 -20 1 -32 10 l-23 15 29 18 c32 20 42 18 23 -6z m290 14 c0 -5 -7 -8 -15
-8 -8 0 -15 -4 -15 -10 0 -5 -7 -10 -16 -10 -10 0 -37 -16 -61 -36 -24 -20
-47 -33 -51 -29 -4 4 1 12 11 19 18 14 22 26 9 26 -12 0 -52 -39 -52 -50 0 -5
6 -7 14 -4 8 3 17 1 20 -5 3 -5 -8 -12 -25 -16 -31 -7 -54 8 -43 27 3 5 -7 3
-23 -4 -15 -7 -32 -18 -36 -25 -4 -7 -15 -13 -23 -13 -8 0 -13 -4 -10 -9 3 -5
-5 -12 -19 -15 -14 -4 -25 -11 -25 -18 0 -6 -15 -24 -34 -40 -19 -16 -34 -35
-32 -41 1 -7 1 -9 -1 -5 -3 5 -14 3 -26 -3 -12 -6 18 27 67 75 49 47 92 86 97
86 5 0 18 9 29 20 27 27 97 70 114 70 7 0 19 6 25 14 12 14 121 18 121 4z
m5100 -18 c0 -14 -14 -12 -28 2 -19 19 -14 30 8 18 11 -6 20 -15 20 -20z
m-260 2 c0 -22 -26 -59 -35 -50 -6 6 24 68 32 68 2 0 3 -8 3 -18z m2678 -58
c-10 -10 -28 6 -28 24 0 15 1 15 17 -1 9 -9 14 -19 11 -23z m196 12 c-10 -8
-21 -12 -24 -10 -5 6 21 24 34 24 6 0 1 -6 -10 -14z m-5860 -58 c19 -31 -4
-53 -55 -53 -38 0 -44 3 -47 23 -2 13 2 30 9 38 16 20 79 14 93 -8z m6178 5
c6 -30 -4 -63 -18 -63 -8 0 -14 -5 -14 -11 0 -5 -4 -8 -8 -5 -4 2 -22 -3 -40
-11 -25 -12 -36 -13 -45 -4 -6 6 -20 11 -31 11 -12 0 -30 8 -41 16 -13 10 -15
15 -5 13 18 -4 54 15 93 47 36 30 104 34 109 7z m-3556 -96 c7 -21 9 -37 3
-37 -5 0 -9 4 -9 10 0 5 -6 7 -14 4 -8 -3 -23 0 -33 6 -13 8 -13 10 -2 7 9 -3
22 -1 30 4 11 7 9 10 -8 15 -13 4 -23 11 -23 16 0 5 5 6 10 3 6 -3 10 -1 10 5
0 24 24 2 36 -33z m2466 18 c16 -34 -4 -55 -53 -55 -50 0 -70 29 -39 60 29 29
77 27 92 -5z m-7222 -30 c-6 -8 -18 -11 -26 -8 -22 8 -17 18 11 19 20 2 23 -1
15 -11z m4675 -5 c3 -5 2 -10 -4 -10 -5 0 -13 5 -16 10 -3 6 -2 10 4 10 5 0
13 -4 16 -10z m3594 -5 c16 -8 31 -11 35 -8 3 4 6 -10 6 -30 0 -27 -4 -35 -14
-31 -7 3 -16 -2 -20 -11 -4 -11 -12 -14 -27 -10 -13 5 -25 2 -31 -6 -6 -10 -7
-7 -3 9 8 29 -13 29 -24 -1 -13 -33 -39 -53 -52 -40 -8 8 -5 14 9 22 10 6 23
7 26 3 4 -4 5 5 1 21 -5 17 -3 27 4 27 6 0 11 9 11 19 0 11 10 27 22 35 27 19
23 19 57 1z m-129 -37 c0 -12 -12 -9 -32 6 -14 10 -15 15 -5 25 9 9 15 8 24
-6 7 -9 13 -20 13 -25z m-8150 18 c0 -3 -4 -8 -10 -11 -5 -3 -10 -1 -10 4 0 6
5 11 10 11 6 0 10 -2 10 -4z m8064 -65 c-6 -6 -24 19 -24 34 1 6 7 1 15 -9 8
-11 12 -22 9 -25z m-3389 0 c3 -5 1 -12 -5 -16 -5 -3 -10 1 -10 9 0 18 6 21
15 7z m703 -23 c19 -19 14 -37 -8 -31 -11 3 -20 14 -20 24 0 22 11 24 28 7z
m-829 -63 c6 -3 11 2 12 12 0 14 2 15 6 3 3 -8 9 -17 14 -20 4 -3 9 -16 12
-30 2 -14 2 -19 0 -12 -3 7 -10 11 -16 10 -21 -4 -68 48 -60 67 6 17 7 17 14
-2 4 -12 12 -24 18 -28z m77 33 c3 -4 13 -4 22 -1 11 5 13 3 6 -8 -4 -8 -7
-22 -5 -33 2 -13 -1 -16 -11 -11 -22 13 -58 48 -58 57 0 9 36 6 46 -4z m-149
-55 c-3 -10 -5 -4 -5 12 0 17 2 24 5 18 2 -7 2 -21 0 -30z m3553 -8 c45 -43
72 -102 58 -125 -12 -19 -46 -20 -88 -3 -16 7 -34 7 -50 1 -54 -20 -100 50
-57 89 12 11 17 27 15 44 -4 26 -3 26 43 25 38 -1 54 -7 79 -31z m-150 3 c0
-19 -2 -20 -10 -8 -13 19 -13 30 0 30 6 0 10 -10 10 -22z m-5930 -23 c6 -8 10
-22 8 -32 -4 -24 -53 -41 -76 -27 -39 25 -20 74 28 74 15 0 33 -7 40 -15z
m3575 5 c3 -5 1 -10 -4 -10 -6 0 -11 5 -11 10 0 6 2 10 4 10 3 0 8 -4 11 -10z
m-1052 -41 c-5 -5 -9 3 -11 19 -1 24 0 25 9 9 7 -11 7 -23 2 -28z m373 -2
c-36 -36 -33 -78 9 -160 39 -75 29 -80 -16 -9 -45 72 -39 178 11 194 24 8 23
2 -4 -25z m-5158 1 c20 -20 14 -47 -12 -54 -44 -11 -71 20 -57 64 3 8 59 0 69
-10z m4896 -3 c6 -18 -2 -45 -15 -45 -4 0 -13 9 -19 20 -12 22 -1 27 18 8 7
-7 12 -8 12 -2 0 6 -5 15 -12 22 -8 8 -8 12 -1 12 6 0 13 -7 17 -15z m2253 3
c5 -7 9 -24 9 -38 -2 -47 -86 -36 -86 11 0 32 58 52 77 27z m-877 -58 c-14
-10 -26 -17 -28 -15 -7 7 23 34 38 34 10 1 6 -6 -10 -19z m-1400 -20 c0 -5 -4
-10 -10 -10 -5 0 -10 5 -10 10 0 6 5 10 10 10 6 0 10 -4 10 -10z m-2826 -19
c30 -33 -7 -77 -51 -60 -41 15 -23 77 23 79 6 0 18 -8 28 -19z m6236 9 c0 -5
-2 -10 -4 -10 -3 0 -8 5 -11 10 -3 6 -1 10 4 10 6 0 11 -4 11 -10z m-3385 -39
c-6 -5 -25 10 -25 20 0 5 6 4 14 -3 8 -7 12 -15 11 -17z m292 -3 c-3 -8 -6 -5
-6 6 -1 11 2 17 5 13 3 -3 4 -12 1 -19z m-2197 -3 c17 -21 3 -54 -27 -61 -32
-9 -59 8 -55 32 7 39 58 57 82 29z m4418 7 c7 -5 14 -22 15 -38 2 -28 0 -29
-38 -29 -33 0 -41 4 -43 21 -5 37 35 65 66 46z m-2533 -82 c4 -15 4 -21 -2
-15 -4 6 -19 22 -32 37 -13 14 -20 32 -16 38 8 13 39 -24 50 -60z m1679 57
c26 -19 18 -61 -12 -65 -45 -7 -69 38 -34 64 22 17 24 17 46 1z m-2646 -26 c6
-39 -42 -56 -72 -25 -25 25 -3 56 37 52 25 -2 33 -8 35 -27z m864 24 c7 -3 13
-19 12 -38 -1 -26 -5 -33 -26 -35 -13 -2 -30 4 -37 12 -16 19 -6 53 17 59 9 3
18 5 19 6 1 0 7 -1 15 -4z m542 -86 c14 -29 14 -30 -2 -24 -9 4 -25 8 -36 11
-25 5 -33 14 -12 14 9 0 19 7 22 15 8 21 10 19 28 -16z m-474 -16 c0 -43 -5
-41 -13 5 -4 18 -2 32 3 32 6 0 10 -16 10 -37z m1433 -5 c33 -16 43 -52 21
-81 l-16 -22 6 27 c7 30 3 32 -74 43 -25 4 -52 11 -60 15 -13 8 -13 9 0 14 53
18 90 19 123 4z m-1199 -73 c-13 -9 -20 -10 -23 -3 -2 6 5 17 15 25 13 9 20
10 22 3 2 -6 -4 -17 -14 -25z m-214 -15 c23 -44 15 -52 -17 -17 -28 31 -36 57
-18 57 8 0 24 -18 35 -40z m3510 30 c-20 -13 -33 -13 -25 0 3 6 14 10 23 10
15 0 15 -2 2 -10z m-1856 -45 c-4 -10 0 -15 11 -15 25 0 14 -34 -12 -38 -30
-4 -49 31 -27 52 20 20 35 21 28 1z m-3206 -19 c5 -23 -23 -47 -44 -39 -17 6
-18 29 -1 48 16 19 41 14 45 -9z m5069 18 c-3 -3 -12 -4 -19 -1 -8 3 -5 6 6 6
11 1 17 -2 13 -5z m-3332 -24 c-3 -5 -10 -10 -16 -10 -5 0 -9 5 -9 10 0 6 7
10 16 10 8 0 12 -4 9 -10z m-212 -67 c3 -16 3 -30 0 -33 -8 -9 -32 31 -26 46
8 22 20 16 26 -13z m1382 -3 c3 -5 -1 -10 -9 -10 -9 0 -16 5 -16 10 0 6 4 10
9 10 6 0 13 -4 16 -10z m-1352 -56 c8 -8 -3 -34 -14 -34 -5 0 -9 9 -9 20 0 19
11 26 23 14z m292 -34 c-4 -12 -9 -19 -12 -17 -3 3 -2 15 2 27 4 12 9 19 12
17 3 -3 2 -15 -2 -27z m-1680 -8 c11 -6 14 -12 7 -12 -7 0 -10 -4 -7 -10 4 -6
-5 -10 -19 -10 -14 0 -26 -5 -26 -11 0 -8 -5 -7 -16 2 -10 8 -12 15 -5 17 6 2
9 8 5 13 -16 27 22 34 61 11z m805 -3 c0 -5 5 -7 12 -3 6 4 8 3 4 -4 -3 -5 0
-13 6 -15 7 -3 -2 -3 -21 0 -23 4 -32 3 -27 -5 3 -6 1 -14 -6 -18 -7 -4 -10
-4 -6 1 4 4 2 17 -4 28 -9 17 -8 19 6 14 9 -4 16 -2 16 3 0 6 5 10 10 10 6 0
10 -5 10 -11z m550 1 c0 -5 -5 -10 -11 -10 -5 0 -7 5 -4 10 3 6 8 10 11 10 2
0 4 -4 4 -10z m-2230 -6 c0 -8 -19 -13 -24 -6 -3 5 1 9 9 9 8 0 15 -2 15 -3z
m5319 -138 c-7 -14 -16 -26 -21 -26 -5 0 -6 5 -3 10 3 6 1 10 -4 10 -6 0 -11
4 -11 10 0 5 7 7 15 4 9 -4 18 1 21 10 4 9 8 15 11 13 2 -3 -2 -16 -8 -31z
m-2609 -166 c12 -8 11 -10 -7 -10 -13 0 -23 5 -23 10 0 13 11 13 30 0z m-25
-29 c-3 -5 -1 -12 5 -16 5 -3 10 2 10 11 0 10 3 15 6 11 3 -3 3 -14 0 -25 -5
-15 -13 -18 -29 -14 -12 3 -19 1 -14 -3 4 -5 17 -10 29 -12 12 -2 24 -6 27 -8
10 -10 -16 -26 -47 -28 -18 -1 -32 -5 -32 -8 0 -4 -6 -9 -13 -12 -8 -3 -13 3
-13 14 0 11 5 19 11 19 10 0 41 59 37 73 -1 4 5 7 14 7 8 0 13 -4 9 -9z m-139
-178 c-6 -6 -36 9 -36 18 0 5 9 4 20 -3 10 -7 18 -14 16 -15z m2404 -98 c-7
-8 -17 -15 -22 -15 -6 0 -5 7 2 15 7 8 17 15 22 15 6 0 5 -7 -2 -15z m-180
-54 c13 -26 13 -31 -5 -31 -8 0 -15 5 -15 10 0 6 -15 10 -32 10 l-33 1 30 14
c40 18 43 18 55 -4z m-5644 -46 c1 -8 -1 -15 -6 -15 -10 0 -20 26 -13 34 8 8
16 -1 19 -19z m34 -16 c0 -5 5 -7 12 -3 7 4 8 3 4 -4 -5 -8 0 -12 13 -12 12 0
21 -7 21 -15 0 -8 7 -15 15 -15 8 0 15 -4 15 -10 0 -5 5 -9 11 -7 6 1 14 -4
17 -12 9 -26 -45 -3 -88 38 -41 38 -48 51 -30 51 6 0 10 -5 10 -11z m3812 -56
c18 -15 35 -28 37 -30 2 -2 1 -6 -2 -9 -8 -8 -75 36 -82 54 -7 20 11 14 47
-15z m-3654 -61 c10 -10 22 -26 25 -36 6 -14 3 -16 -16 -10 -12 4 -23 11 -25
15 -2 5 -9 9 -15 9 -7 0 -18 9 -25 20 -11 18 -10 20 13 20 14 0 33 -8 43 -18z
m3112 -72 c6 0 19 -9 30 -20 16 -16 20 -33 20 -89 0 -49 -4 -72 -15 -81 -8 -7
-15 -20 -15 -29 -1 -13 -5 -11 -19 7 -11 12 -27 22 -36 22 -11 0 -15 6 -10 19
3 10 -1 24 -10 31 -26 21 -18 159 8 143 6 -4 8 2 4 17 l-6 22 20 -21 c11 -11
24 -21 29 -21z m2181 -13 c-10 -9 -11 -8 -5 6 3 10 9 15 12 12 3 -3 0 -11 -7
-18z m-453 -41 c0 -18 -5 -23 -19 -21 -20 4 -27 -11 -9 -17 17 -5 -12 -35 -40
-43 -16 -4 -20 -3 -12 3 10 6 10 15 2 36 -15 40 -13 47 14 40 15 -3 29 0 37
10 20 22 27 20 27 -8z m392 -21 c-13 -14 -26 -23 -28 -20 -7 7 29 45 41 45 6
0 0 -11 -13 -25z m-4850 -22 c0 -7 -9 -13 -21 -13 -11 0 -28 -7 -37 -16 -15
-15 -15 -16 3 -11 11 3 34 8 50 11 28 5 28 5 8 -6 -26 -12 -31 -38 -8 -38 8 0
15 -4 15 -10 0 -5 11 -12 25 -16 14 -3 23 -10 20 -14 -5 -9 42 -25 64 -21 7 1
10 -2 6 -8 -3 -6 1 -11 10 -11 9 0 14 -4 11 -9 -9 -14 -129 30 -148 54 -9 12
-37 34 -62 50 -25 16 -46 33 -46 38 0 5 7 4 15 -3 18 -15 47 3 38 25 -3 11 3
14 26 12 17 -1 31 -8 31 -14z m4413 -60 c-7 -2 -21 -2 -30 0 -10 3 -4 5 12 5
17 0 24 -2 18 -5z m192 -43 c-3 -5 -10 -10 -16 -10 -5 0 -9 5 -9 10 0 6 7 10
16 10 8 0 12 -4 9 -10z m-175 -40 c0 -5 -5 -10 -11 -10 -5 0 -7 5 -4 10 3 6 8
10 11 10 2 0 4 -4 4 -10z m-4245 -30 c3 -5 2 -10 -4 -10 -5 0 -13 5 -16 10 -3
6 -2 10 4 10 5 0 13 -4 16 -10z m3389 -25 c-4 -8 -11 -15 -16 -15 -6 0 -5 6 2
15 7 8 14 15 16 15 2 0 1 -7 -2 -15z m746 -15 c0 -5 -2 -10 -4 -10 -3 0 -8 5
-11 10 -3 6 -1 10 4 10 6 0 11 -4 11 -10z m-774 -11 c3 -6 15 -9 25 -6 23 6
26 -11 3 -20 -11 -4 -14 -13 -10 -29 4 -13 2 -24 -3 -24 -15 0 -32 27 -25 43
3 8 1 18 -5 22 -14 8 -14 25 -2 25 6 0 13 -5 17 -11z m704 7 c0 -11 -19 -15
-25 -6 -3 5 1 10 9 10 9 0 16 -2 16 -4z m-656 -57 c-3 -5 -10 -7 -15 -3 -5 3
-7 10 -3 15 3 5 10 7 15 3 5 -3 7 -10 3 -15z m396 -29 c0 -5 -4 -10 -10 -10
-5 0 -10 5 -10 10 0 6 5 10 10 10 6 0 10 -4 10 -10z m327 -12 c-3 -8 -6 -5 -6
6 -1 11 2 17 5 13 3 -3 4 -12 1 -19z m-763 -54 c3 -8 2 -12 -4 -9 -6 3 -10 10
-10 16 0 14 7 11 14 -7z m506 -89 l0 -95 -65 0 -65 0 0 94 0 93 65 2 65 2 0
-96z m-475 55 c3 -5 -1 -10 -10 -10 -9 0 -13 5 -10 10 3 6 8 10 10 10 2 0 7
-4 10 -10z m-2699 -68 c-6 -6 -73 13 -95 27 -22 14 -4 33 20 21 15 -9 19 -7
19 5 0 11 9 6 31 -16 17 -17 28 -34 25 -37z m648 57 c-8 -14 -106 -60 -113
-53 -7 6 32 33 41 28 4 -3 5 2 2 11 -5 11 -2 14 12 8 9 -3 15 -2 12 3 -4 5 7
10 23 11 19 1 27 -2 23 -8z m2050 -34 c14 -14 23 -32 20 -40 -7 -18 -24 -10
-24 12 0 12 -3 13 -14 4 -11 -9 -13 -5 -12 19 1 16 2 30 3 30 1 0 13 -11 27
-25z m-2397 -25 c3 -13 14 -20 29 -20 13 0 24 -4 24 -10 0 -9 -26 -12 -85 -12
-8 0 -31 0 -50 1 -35 1 -35 1 -19 25 14 22 30 29 82 35 8 0 16 -8 19 -19z
m2441 -138 c19 -41 27 -112 13 -112 -7 0 -9 5 -5 13 6 9 4 9 -8 -1 -13 -11
-20 -11 -36 -1 -22 14 -25 49 -5 49 22 0 12 61 -12 71 -17 7 -16 8 10 8 23 1
33 -5 43 -27z m-1039 -38 c3 2 6 -9 7 -24 1 -21 -5 -30 -20 -35 -18 -6 -19 -8
-3 -12 9 -2 17 -8 17 -13 0 -21 -38 5 -43 28 -2 15 -7 36 -12 47 -4 11 -3 15
2 9 12 -15 43 -25 43 -14 0 6 -7 10 -15 10 -8 0 -15 2 -15 4 0 2 -3 12 -7 22
-6 15 -3 15 17 -3 12 -12 26 -21 29 -19z m1042 -105 c-23 -9 -34 0 -21 16 9
11 15 12 25 2 11 -10 10 -13 -4 -18z m-1016 -22 c16 -5 15 -5 -4 -4 -14 1 -26
9 -28 17 -3 10 -2 11 4 4 4 -7 17 -14 28 -17z m1601 -43 c-8 -22 -17 -71 -20
-111 -3 -39 -12 -87 -20 -106 -8 -20 -12 -37 -10 -40 10 -10 11 -87 0 -88 -7
0 -6 -3 2 -6 13 -5 17 -80 6 -120 -9 -33 -24 -18 -18 16 3 16 1 38 -5 50 -9
16 -9 21 0 21 8 0 9 4 0 13 -6 8 -8 16 -5 20 3 3 1 14 -5 25 -7 13 -7 22 1 30
9 9 9 12 -1 12 -7 0 -9 5 -5 11 4 7 7 28 8 48 1 28 5 35 19 33 22 -4 22 7 0
23 -14 11 -15 17 -5 39 6 14 7 28 2 31 -5 3 8 36 28 74 40 76 51 85 28 25z
m-1555 17 c-17 -11 -5 -32 13 -25 8 3 17 1 21 -5 3 -7 0 -8 -9 -5 -9 3 -16 1
-16 -5 0 -6 6 -11 13 -11 21 0 40 -17 32 -29 -5 -9 -11 -7 -21 6 -12 17 -13
17 -14 1 0 -20 -8 -22 -29 -9 -8 5 -11 16 -8 25 4 10 1 16 -8 16 -8 0 -15 7
-15 15 0 8 -6 15 -12 16 -7 0 3 6 22 13 37 13 54 11 31 -3z m53 -110 c4 -5 -2
-7 -13 -4 -10 3 -22 0 -25 -6 -5 -7 8 -11 36 -12 24 -1 35 -3 26 -6 -10 -2
-18 -8 -18 -13 0 -5 8 -11 18 -13 11 -3 8 -5 -9 -6 -17 -1 -29 5 -33 15 -4 9
-9 14 -13 11 -8 -8 -33 25 -27 35 7 11 52 10 58 -1z m1370 -35 c-6 -15 -34
-31 -34 -19 0 5 30 32 37 33 1 0 0 -6 -3 -14z m2032 -41 c17 -16 14 -18 -10
-9 -9 3 -16 10 -16 15 0 13 9 11 26 -6z m-3336 -5 c0 -5 -4 -10 -9 -10 -6 0
-13 5 -16 10 -3 6 1 10 9 10 9 0 16 -4 16 -10z m41 -14 c5 3 9 1 9 -4 0 -5
-11 -9 -25 -9 -21 0 -23 2 -13 14 8 10 14 11 16 4 2 -6 8 -9 13 -5z m-2558
-27 c-5 -5 -20 -5 -33 -2 l-25 7 25 6 c28 8 46 2 33 -11z m3757 -24 c0 -8 6
-16 13 -19 6 -3 -7 -3 -30 -1 -40 4 -59 -8 -30 -18 7 -2 8 -8 3 -13 -5 -5 -13
-2 -19 8 -10 15 -12 14 -22 -5 -8 -16 -20 -22 -49 -24 -21 0 -43 -6 -49 -12
-16 -16 -47 -13 -47 4 0 8 6 15 13 15 6 0 47 18 90 39 80 39 127 49 127 26z
m53 8 c-21 -8 -15 -26 7 -20 11 3 18 1 14 -4 -8 -13 -38 -11 -52 3 -19 19 -14
28 16 27 15 0 21 -3 15 -6z m-3823 -7 c0 -2 -7 -6 -15 -10 -8 -3 -15 -1 -15 4
0 6 7 10 15 10 8 0 15 -2 15 -4z m3439 -32 c33 -42 26 -95 -8 -61 -10 10 -11
8 -5 -7 5 -13 4 -17 -4 -12 -11 7 -70 -19 -83 -37 -7 -10 -39 2 -39 15 0 5 -5
6 -11 3 -5 -4 -18 3 -28 14 -10 12 -25 21 -34 21 -18 0 -29 34 -15 48 13 13
48 3 48 -13 0 -29 81 0 100 35 15 28 54 25 79 -6z m-2626 -34 c-4 -16 -33 -30
-33 -16 0 2 -3 11 -6 20 -5 12 0 16 19 16 20 0 24 -4 20 -20z m-383 -40 c0
-12 -37 -50 -49 -50 -14 0 -20 39 -8 47 6 3 13 1 15 -5 2 -7 8 -12 13 -12 6 0
8 4 5 9 -5 8 2 14 22 20 1 1 2 -3 2 -9z m-350 -46 c6 -16 5 -34 -2 -51 -6 -16
-12 -35 -12 -43 -1 -22 -36 -26 -36 -4 0 10 -6 25 -14 33 -24 26 -29 66 -12
83 21 22 65 11 76 -18z m-841 -3 c-15 -5 -22 6 -14 19 6 9 10 9 16 -1 5 -8 4
-15 -2 -18z m1866 -14 c29 -45 38 -85 25 -117 -6 -16 -18 -31 -27 -34 -19 -8
-55 12 -50 27 2 7 -10 18 -26 25 -27 11 -29 15 -24 48 11 69 70 99 102 51z
m-2110 -3 c20 -20 18 -97 -2 -89 -8 2 -12 1 -9 -4 3 -4 -3 -16 -14 -26 -18
-16 -19 -16 -36 4 -20 23 -21 111 -1 123 19 12 45 9 62 -8z m1875 -29 c3 -18
11 -30 20 -30 21 0 32 -22 25 -46 -10 -32 -85 -54 -85 -25 0 14 -29 30 -38 21
-3 -3 -1 -5 5 -5 6 0 14 -8 17 -17 7 -17 6 -17 -10 -1 -13 13 -17 30 -15 64 3
55 17 75 51 71 19 -1 26 -9 30 -32z m3764 -12 c13 -61 -11 -133 -44 -133 -10
0 -20 -5 -22 -11 -2 -6 -14 10 -27 35 -32 64 -16 141 31 148 34 6 56 -8 62
-39z m-6044 33 c0 -3 -4 -8 -10 -11 -5 -3 -10 -1 -10 4 0 6 5 11 10 11 6 0 10
-2 10 -4z m650 0 c0 -2 -7 -9 -15 -16 -13 -11 -14 -10 -9 4 5 14 24 23 24 12z
m530 -11 c-12 -15 -30 -12 -30 6 0 5 10 9 21 9 18 0 19 -2 9 -15z m974 -21 c6
-15 -2 -44 -13 -44 -24 1 -48 56 -27 63 16 6 34 -2 40 -19z m-2368 8 c16 -10
34 -48 34 -70 0 -25 -60 -28 -61 -3 0 10 -2 12 -6 4 -6 -15 -38 -1 -46 21 -13
35 45 71 79 48z m3229 -25 c8 -11 12 -24 9 -29 -3 -5 -1 -15 5 -22 27 -33 -19
-116 -64 -116 -52 0 -97 118 -62 162 31 39 86 42 112 5z m-2995 4 c5 -11 7
-27 4 -35 -4 -12 0 -16 16 -16 12 0 19 -4 14 -11 -3 -6 -17 -8 -30 -5 -18 5
-22 3 -18 -9 4 -8 1 -15 -5 -15 -6 0 -10 -3 -8 -7 1 -5 -2 -9 -8 -9 -5 -1 -9
2 -7 7 1 5 -4 9 -12 9 -8 0 -17 7 -20 16 -13 33 -5 59 22 76 36 21 39 21 52
-1z m1190 10 c0 -6 -4 -13 -10 -16 -5 -3 -10 1 -10 9 0 9 5 16 10 16 6 0 10
-4 10 -9z m171 -7 c8 -9 13 -26 11 -38 -3 -31 24 -111 37 -108 6 1 11 -2 11
-8 0 -5 14 -10 30 -10 27 0 30 -3 30 -33 0 -18 6 -39 12 -45 17 -17 16 -44 0
-57 -7 -6 -18 -21 -25 -35 -15 -29 -73 -71 -90 -64 -20 7 -69 93 -63 109 3 8
15 15 26 15 12 0 28 7 36 15 8 8 22 11 30 8 14 -5 14 -3 3 16 -8 11 -18 19
-24 17 -15 -5 -46 14 -40 25 4 5 1 9 -4 9 -6 0 -11 -5 -11 -11 0 -5 -5 -7 -10
-4 -6 4 -7 11 -4 17 4 5 -3 22 -14 37 -15 21 -19 39 -16 84 1 32 6 62 9 67 10
16 51 12 66 -6z m969 6 c0 -5 -4 -10 -10 -10 -5 0 -10 5 -10 10 0 6 5 10 10
10 6 0 10 -4 10 -10z m736 -5 c17 -16 10 -59 -9 -52 -18 6 -31 33 -24 51 8 20
14 20 33 1z m2384 -16 c0 -5 6 -9 14 -9 8 0 12 -9 11 -24 -8 -67 -36 -102 -67
-83 -13 8 -14 13 -5 20 7 5 3 6 -10 2 -20 -6 -23 -3 -22 22 2 44 9 63 24 63 7
0 15 7 19 15 5 15 36 10 36 -6z m-3730 -9 c0 -5 6 -10 14 -10 22 0 31 -57 11
-76 -14 -15 -18 -14 -39 9 -24 26 -29 54 -13 75 11 14 27 16 27 2z m5062 -40
c6 -40 -4 -55 -29 -42 -12 7 -25 7 -34 1 -8 -5 -9 -9 -2 -9 7 0 11 -12 10 -27
-2 -29 22 -41 31 -15 2 6 -4 12 -14 12 -24 0 -12 10 20 16 18 3 26 0 26 -10 0
-8 -5 -16 -10 -18 -7 -2 -5 -16 5 -40 19 -48 19 -82 -1 -113 -16 -25 -12 -45
9 -45 9 0 8 3 -1 8 -9 7 -1 21 31 54 42 45 45 46 107 47 56 0 67 -3 102 -30
21 -17 45 -44 53 -60 14 -26 14 -29 -3 -38 -22 -11 -39 -10 -69 7 -13 7 -23 9
-23 5 0 -4 -4 -1 -10 7 -14 23 -57 -5 -64 -44 -8 -36 -8 -143 0 -169 5 -15 1
-17 -28 -12 -18 3 -37 10 -42 16 -6 5 -26 9 -45 8 -20 0 -30 -3 -23 -6 7 -3
19 -17 26 -32 13 -24 12 -29 -5 -51 -10 -14 -19 -32 -19 -40 -1 -24 -13 -38
-41 -45 -22 -5 -33 1 -68 36 -22 23 -41 47 -40 53 0 6 3 5 6 -2 4 -10 8 -10
19 -1 12 10 12 14 3 20 -8 4 -13 28 -12 59 l1 52 -18 -30 c-21 -35 -31 -42
-67 -48 -37 -7 -39 -11 -21 -31 10 -11 15 -30 12 -51 -4 -39 21 -85 45 -79 9
1 26 -7 37 -19 12 -13 26 -20 30 -16 5 4 0 -4 -11 -18 -11 -14 -26 -29 -32
-33 -7 -4 -13 -17 -13 -27 0 -12 -7 -20 -16 -20 -10 0 -14 6 -11 14 3 8 -1 17
-9 20 -8 3 -14 17 -14 31 0 34 -26 43 -63 22 -16 -10 -33 -15 -38 -12 -5 4 -7
-7 -5 -23 3 -27 1 -29 -26 -27 -15 1 -31 5 -35 9 -9 9 -50 7 -92 -4 -20 -5
-48 -12 -62 -14 -34 -7 -41 -26 -23 -61 8 -15 11 -31 8 -36 -8 -14 -62 -11
-95 6 -16 9 -51 16 -77 17 -26 0 -50 6 -54 12 -6 8 -8 8 -8 -1 0 -17 -83 -9
-111 11 -37 25 -43 19 -19 -20 12 -19 21 -36 19 -38 -23 -19 -48 -24 -65 -12
-15 12 -22 11 -44 -2 -14 -9 -27 -19 -30 -23 -12 -14 -41 -4 -46 17 -7 27 10
61 34 69 28 8 45 51 31 76 -7 14 -16 18 -27 13 -25 -11 -76 -8 -80 5 -8 24
-18 9 -14 -21 4 -26 -1 -36 -33 -65 -67 -60 -116 -55 -97 9 11 35 24 131 16
111 -3 -7 -10 -13 -15 -13 -13 0 -11 24 4 38 21 22 16 60 -10 67 -46 11 -78
126 -48 172 16 23 16 25 1 20 -9 -4 -27 -2 -41 3 -20 8 -27 6 -35 -10 -14 -26
-12 -40 5 -40 8 0 15 -7 15 -15 0 -8 6 -14 13 -12 7 1 14 -14 17 -43 7 -62 2
-79 -27 -86 -20 -5 -23 -11 -18 -28 4 -11 10 -37 14 -56 5 -19 13 -47 19 -62
6 -15 7 -30 3 -33 -5 -3 -7 -25 -4 -50 3 -35 0 -50 -19 -75 l-23 -31 25 -19
c30 -23 44 -25 37 -5 -7 18 8 28 31 21 20 -7 68 -81 64 -100 -1 -7 5 -19 13
-26 20 -17 19 -69 -2 -92 -33 -36 -53 -18 -53 50 0 20 -7 46 -15 56 -14 19
-15 17 -16 -20 0 -21 -9 -52 -19 -69 -60 -96 -63 -109 -50 -179 14 -73 14 -73
98 -57 50 10 62 19 42 32 -13 8 -13 11 3 23 33 26 9 45 -48 37 -5 -1 -1 6 9
14 11 8 16 15 12 15 -5 0 -3 6 3 13 6 8 8 17 4 20 -19 20 34 3 63 -20 31 -23
37 -25 50 -11 14 13 12 17 -10 32 -45 29 -25 96 28 96 13 0 40 -11 60 -25 34
-23 38 -24 61 -9 13 8 38 33 56 55 17 21 38 39 45 39 21 0 62 -43 69 -73 8
-32 82 -89 105 -82 9 3 26 -4 38 -16 31 -28 96 -18 133 21 22 23 24 30 13 45
-11 15 -9 23 13 51 14 19 34 34 44 34 25 0 24 17 -1 25 -29 9 -28 87 1 118 12
12 19 16 15 10 -4 -8 -1 -13 7 -13 8 0 18 -7 21 -16 5 -12 14 -14 45 -9 34 6
41 3 51 -15 11 -21 5 -80 -9 -80 -3 0 -12 -14 -18 -31 -7 -17 -17 -28 -22 -24
-17 10 -13 -6 6 -27 9 -10 22 -18 28 -18 7 0 31 -18 55 -40 33 -31 40 -44 35
-61 -5 -15 -4 -19 5 -14 8 5 10 24 5 61 l-6 53 42 30 c34 25 38 31 21 31 -12
0 -22 4 -22 10 0 20 53 44 99 44 l46 1 3 134 c2 133 14 197 46 259 24 47 152
112 222 112 16 0 35 5 42 12 9 9 12 7 13 -13 0 -21 1 -22 8 -4 5 13 2 26 -11
40 -10 11 -15 21 -9 23 5 2 -2 14 -15 27 -42 42 -26 107 21 88 9 -3 23 1 33 9
22 19 133 18 156 -1 20 -17 21 -65 1 -81 -8 -7 -15 -20 -15 -29 0 -14 -2 -14
-11 -1 -8 12 -10 10 -8 -10 1 -14 1 -28 0 -32 -1 -5 -1 -11 0 -14 0 -3 -8 -12
-18 -19 -21 -16 -59 -10 -85 13 -16 14 -18 13 -18 -1 0 -10 5 -17 10 -17 6 0
10 -4 10 -10 0 -5 -7 -7 -15 -4 -8 4 -15 1 -15 -5 0 -6 8 -11 17 -11 13 0 14
-3 6 -11 -9 -9 1 -18 38 -36 54 -27 79 -25 79 7 0 11 5 20 10 20 6 0 10 7 10
15 0 8 5 15 12 15 6 0 8 3 5 6 -3 4 -1 16 4 27 8 15 8 22 -2 29 -10 7 -8 8 6
3 56 -20 192 -58 210 -58 11 0 27 1 35 4 13 3 15 -18 15 -150 0 -107 -3 -156
-11 -158 -9 -3 -8 -11 2 -31 9 -19 11 -46 7 -87 -6 -58 -7 -59 -18 -31 -11 27
-12 27 -18 6 -9 -35 -47 -22 -74 27 -14 25 -19 44 -13 48 15 9 12 35 -4 35
-17 0 -28 -27 -21 -51 4 -11 2 -19 -5 -19 -6 0 -15 -11 -20 -25 -10 -28 -38
-33 -70 -13 -15 10 -22 10 -31 1 -17 -17 -3 -43 23 -43 13 0 34 -7 46 -16 20
-14 25 -14 35 -2 34 40 44 41 106 12 65 -31 71 -41 71 -116 0 -59 -7 -78 -30
-78 -28 0 -32 -15 -10 -35 11 -10 20 -14 21 -9 0 5 4 -1 9 -13 18 -44 3 -60
-58 -62 -31 -1 -72 -4 -90 -6 -28 -4 -34 0 -42 21 -14 35 -12 53 2 29 12 -19
13 -18 19 10 l7 30 1 -27 c1 -21 6 -28 21 -28 13 0 20 7 20 20 0 11 6 20 14
20 20 0 16 39 -4 44 -8 3 -34 5 -57 5 -41 0 -43 -1 -44 -32 l-1 -32 -8 35 c-5
19 -13 36 -19 38 -6 2 -9 9 -6 15 3 7 -1 2 -10 -10 -16 -20 -19 -21 -40 -7
-19 12 -24 12 -34 0 -6 -8 -9 -28 -6 -45 3 -18 1 -31 -5 -31 -5 0 -10 16 -10
35 0 19 -4 35 -10 35 -5 0 -10 -20 -10 -45 0 -33 4 -45 15 -46 8 -1 20 -3 25
-4 6 -1 13 -3 16 -4 3 0 -2 -8 -10 -17 -9 -8 -16 -23 -16 -31 0 -14 -2 -14
-18 0 -24 22 -26 22 -61 -12 -31 -30 -71 -33 -71 -5 0 8 -4 14 -10 14 -9 0
-14 -14 -11 -32 0 -5 -35 -8 -79 -8 -76 0 -80 1 -80 23 0 40 -15 50 -30 20 -7
-15 -13 -31 -12 -35 1 -5 -60 -8 -137 -8 l-138 0 4 24 c4 18 0 26 -15 31 -16
4 -23 18 -28 51 -6 45 -7 45 -43 42 -26 -2 -37 -9 -41 -23 -7 -23 -48 -33 -55
-13 -4 9 -24 13 -63 12 -70 -1 -109 -11 -116 -30 -3 -8 -17 -14 -31 -14 -14 0
-25 -4 -25 -10 0 -5 28 -8 62 -7 42 1 63 -3 66 -11 2 -7 13 -22 25 -33 l21
-19 -45 -1 c-37 -1 -200 -1 -262 1 -14 0 -9 11 25 50 24 27 50 50 59 50 9 0
22 7 29 15 13 15 8 19 -23 15 -10 -1 -34 8 -54 20 -53 31 -66 21 -61 -45 4
-41 1 -55 -9 -55 -7 0 -13 -11 -13 -25 l0 -25 -182 -2 c-241 -4 -326 -3 -332
2 -2 3 -6 58 -8 122 -4 111 -6 120 -37 170 -18 28 -25 46 -17 39 20 -17 20
-12 0 27 -17 35 -29 43 -22 14 5 -17 -3 -30 -28 -45 -13 -8 -14 54 -1 64 4 3
4 16 -1 30 -5 13 -6 36 -1 52 4 15 11 58 15 95 3 37 10 72 14 77 31 41 26 237
-8 263 -9 7 -11 12 -4 12 7 0 12 5 12 11 0 5 -4 7 -10 4 -18 -11 -32 6 -18 23
11 14 10 15 -6 8 -19 -6 -19 -6 -3 12 18 19 24 47 8 38 -5 -3 -11 3 -14 14 -3
11 -1 18 4 14 5 -3 9 2 9 10 0 9 -4 16 -8 16 -11 0 2 100 16 126 5 11 15 52
22 92 8 50 16 72 26 72 8 0 14 4 14 10 0 5 -6 7 -13 4 -10 -4 -12 3 -9 25 6
42 23 54 56 41 34 -12 32 -49 -2 -66 -22 -11 -22 -12 18 -28 22 -9 52 -16 65
-16 14 0 34 -6 45 -12 15 -10 22 -10 32 0 9 9 9 12 -1 12 -18 0 -41 26 -41 47
0 24 35 45 63 38 13 -4 36 -20 51 -36 16 -16 34 -28 40 -26 10 3 27 48 40 109
8 37 39 52 78 39 43 -15 57 -39 58 -97 0 -67 -29 -97 -92 -96 -23 1 -46 -5
-50 -11 -4 -7 -13 -12 -19 -12 -17 0 -20 -32 -3 -45 17 -15 35 -4 28 18 -5 14
-4 15 5 2 6 -8 11 -11 11 -7 0 5 14 -1 30 -13 25 -18 34 -19 45 -10 8 7 15 20
15 29 0 9 5 22 12 29 15 15 58 16 58 2 0 -5 5 -10 10 -10 6 0 19 -9 30 -20 11
-11 25 -20 30 -20 15 0 12 55 -4 95 -23 53 -13 70 40 70 38 0 50 5 68 28 15
19 31 27 53 27 18 0 43 4 57 10 21 8 28 5 46 -17 12 -16 20 -41 20 -64 0 -28
5 -41 19 -49 13 -7 22 -7 26 0 9 15 57 12 80 -5 28 -22 31 -61 4 -68 -24 -6
-17 -27 10 -27 20 0 44 -24 55 -54 10 -30 17 -13 23 61 4 54 10 73 29 94 22
23 31 25 86 23 54 -2 65 -5 84 -29 l21 -26 15 23 c15 23 14 25 -14 41 -16 9
-40 17 -53 17 -18 0 -22 4 -18 21 3 12 11 18 19 15 8 -3 14 -1 14 4 0 5 8 6
17 3 12 -5 15 -2 10 10 -5 12 -1 17 13 17 10 0 22 5 25 10 3 6 13 10 21 10 18
0 44 24 44 39 0 6 11 11 24 11 19 0 25 -6 28 -30z m-7726 -15 c12 -13 25 -34
29 -45 8 -24 -10 -51 -29 -44 -7 3 -25 0 -39 -5 -23 -9 -29 -7 -43 14 -13 20
-13 27 -2 47 7 13 14 28 14 33 1 6 2 13 3 18 2 16 45 5 67 -18z m2404 -25 c0
-27 -4 -50 -10 -50 -5 0 -10 9 -10 20 0 13 -5 17 -14 14 -11 -4 -13 0 -9 18 9
43 12 48 28 48 11 0 15 -12 15 -50z m5930 40 c0 -5 -2 -10 -4 -10 -3 0 -8 5
-11 10 -3 6 -1 10 4 10 6 0 11 -4 11 -10z m-8080 -20 c6 -11 8 -25 5 -31 -4
-5 -1 -16 5 -24 6 -8 9 -18 6 -24 -4 -5 1 -11 10 -13 12 -2 9 -10 -15 -34 -35
-36 -71 -50 -71 -28 0 8 -6 14 -14 14 -8 0 -17 13 -20 30 -3 17 -8 43 -12 59
-4 23 0 33 22 50 34 27 70 27 84 1z m3102 -26 c-6 -31 -25 -37 -64 -19 -24 10
-22 31 4 49 19 14 25 14 43 2 11 -8 18 -22 17 -32z m4764 30 c19 -9 32 -20 29
-24 -3 -5 1 -11 7 -13 8 -3 6 -6 -4 -6 -21 -1 -21 -2 -6 -36 17 -37 -11 -87
-59 -104 -34 -13 -36 -12 -64 19 -33 36 -47 76 -30 93 6 6 11 18 11 27 0 28
30 60 57 60 14 0 40 -7 59 -16z m64 1 c0 -8 -2 -15 -4 -15 -2 0 -6 7 -10 15
-3 8 -1 15 4 15 6 0 10 -7 10 -15z m-7704 -29 c6 -9 13 -14 15 -12 7 8 3 -70
-5 -82 -4 -7 -2 -12 4 -12 6 0 8 -4 5 -10 -3 -5 -17 -10 -31 -10 -13 0 -24 -6
-24 -13 0 -15 -50 -17 -51 -2 0 6 -5 15 -11 22 -5 7 -7 16 -4 22 4 5 0 16 -8
24 -8 8 -12 18 -8 21 3 4 0 11 -8 17 -13 8 -12 12 4 24 11 8 16 15 12 15 -4 0
-5 4 -1 9 9 15 98 4 111 -13z m1574 10 c0 -2 -7 -7 -16 -10 -8 -3 -12 -2 -9 4
6 10 25 14 25 6z m5855 -6 c-18 -8 -17 -9 7 -9 42 -1 51 -71 9 -71 -14 0 -14
-2 -1 -10 13 -8 13 -10 -2 -10 -19 0 -28 11 -44 58 -10 27 -9 34 5 42 9 5 23
9 31 9 10 0 8 -3 -5 -9z m-5860 -63 c-8 -30 -17 -35 -65 -33 -30 1 -35 5 -38
28 -3 24 1 28 35 33 21 4 43 8 48 10 18 5 26 -11 20 -38z m6371 -142 c0 -197
-5 -283 -16 -265 -5 8 -9 4 -13 -10 -4 -17 -10 -20 -28 -15 -14 5 -19 4 -15
-4 10 -16 -3 -13 -21 4 -14 14 -13 18 7 35 13 11 32 20 43 20 16 0 18 4 12 28
-4 15 -9 38 -11 51 -3 14 -12 30 -21 36 -9 7 -13 17 -9 23 4 7 1 12 -9 12 -15
0 -15 1 -1 16 22 22 20 38 -9 72 -14 17 -25 36 -25 44 0 19 -20 38 -40 38 -32
0 -52 24 -42 50 8 21 15 24 53 22 25 -1 55 5 69 13 14 8 36 14 50 12 l25 -2 1
-180z m-6613 125 c-3 -11 -11 -16 -19 -13 -14 5 -19 25 -8 36 12 12 32 -5 27
-23z m1523 20 c8 0 20 -12 26 -26 10 -21 9 -27 -3 -35 -20 -12 -22 -12 -47 11
-26 25 -31 65 -6 56 9 -3 22 -6 30 -6z m4124 2 c0 -4 -9 -8 -20 -9 -11 -1 -18
2 -15 8 7 11 35 12 35 1z m-7664 -47 c7 -18 -13 -45 -33 -45 -17 0 -27 24 -19
45 7 20 45 19 52 0z m2444 -3 c0 -10 -7 -27 -15 -38 -8 -12 -11 -25 -7 -29 4
-4 -3 -1 -15 6 -28 17 -28 23 -5 54 20 29 42 32 42 7z m-190 -19 c3 -3 -4 -11
-15 -19 -12 -9 -21 -11 -23 -4 -2 5 -10 10 -18 10 -8 0 -14 7 -14 15 0 11 8
13 33 8 17 -3 34 -8 37 -10z m112 -9 c-4 -10 -29 -7 -51 6 -9 5 -2 7 20 5 18
-1 33 -6 31 -11z m6087 -55 c31 -11 40 -24 21 -31 -12 -4 10 -58 24 -58 18 0
45 -32 39 -46 -3 -8 1 -14 10 -14 14 0 14 -3 -1 -29 l-17 -30 -21 20 -22 20
-21 -22 c-20 -22 -21 -22 -40 -5 -30 27 -63 98 -51 110 6 6 10 24 10 41 0 28
15 55 31 55 3 0 20 -5 38 -11z m-3852 -55 c-3 -3 -12 -4 -19 -1 -8 3 -5 6 6 6
11 1 17 -2 13 -5z m1657 -6 c-3 -4 -9 -8 -15 -8 -5 0 -9 4 -9 8 0 5 7 9 15 9
8 0 12 -4 9 -9z m-6297 -103 c2 -6 -3 -20 -11 -30 -15 -20 -15 -20 -30 0 -10
14 -11 23 -4 33 12 14 40 12 45 -3z m4673 1 c0 -3 -4 -8 -10 -11 -5 -3 -10 -1
-10 4 0 6 5 11 10 11 6 0 10 -2 10 -4z m1722 -38 c-7 -7 -12 -8 -12 -2 0 14
12 26 19 19 2 -3 -1 -11 -7 -17z m-15 -48 c-6 -16 -15 -30 -18 -30 -4 0 -2 14
4 30 6 17 15 30 18 30 4 0 2 -13 -4 -30z m2148 21 c3 -5 1 -12 -5 -16 -5 -3
-10 1 -10 9 0 18 6 21 15 7z m-3841 -37 c3 -8 2 -12 -4 -9 -6 3 -10 10 -10 16
0 14 7 11 14 -7z m1648 -67 c-46 -72 -87 -127 -94 -127 -17 0 -6 27 25 62 50
57 77 92 77 101 0 4 4 7 10 7 5 0 -3 -19 -18 -43z m-6281 4 c7 11 9 10 9 -5 0
-12 -5 -16 -16 -12 -9 3 -18 6 -20 6 -3 0 -2 5 2 12 6 9 9 9 12 -1 4 -11 6
-11 13 0z m143 -62 c-2 -4 1 -9 6 -11 6 -2 13 -17 15 -33 2 -17 4 -32 4 -34 1
-2 7 2 14 8 8 6 17 8 21 4 4 -4 4 0 1 8 -6 16 29 69 46 69 5 0 9 -7 9 -15 0
-9 6 -18 14 -21 29 -11 29 -64 0 -64 -7 0 -24 -10 -38 -22 -89 -81 -127 -96
-66 -27 30 34 41 67 18 52 -7 -4 -15 -8 -18 -9 -3 0 -16 -6 -30 -13 -19 -9
-33 -9 -53 -2 -33 13 -33 21 -5 77 16 34 26 43 44 42 12 -1 21 -5 18 -9z
m6106 -68 c-5 -18 -7 -40 -4 -49 5 -15 4 -15 -5 -1 -7 11 -7 27 0 53 6 21 12
36 15 34 2 -2 -1 -19 -6 -37z m-6206 -47 c4 -10 13 -14 24 -10 14 5 14 3 -2
-9 -11 -8 -15 -15 -9 -15 8 0 8 -7 0 -25 -10 -20 -19 -25 -44 -23 -17 1 -31 4
-31 7 2 19 -4 24 -11 12 -13 -20 -48 -24 -54 -7 -4 10 1 12 16 8 19 -5 20 -3
9 10 -10 13 -9 17 5 22 10 3 32 14 48 25 37 24 41 25 49 5z m6196 -36 c0 -5
-8 -8 -17 -7 -10 0 -13 3 -6 5 7 3 9 13 6 22 -4 15 -3 15 6 2 6 -8 11 -18 11
-22z m397 -20 c-3 -7 -5 -2 -5 12 0 14 2 19 5 13 2 -7 2 -19 0 -25z m-17 2 c0
-5 -7 -10 -15 -10 -8 0 -15 5 -15 10 0 6 7 10 15 10 8 0 15 -4 15 -10z m-383
-32 c-3 -7 -5 -2 -5 12 0 14 2 19 5 13 2 -7 2 -19 0 -25z m383 2 c0 -5 -4 -10
-10 -10 -5 0 -10 5 -10 10 0 6 5 10 10 10 6 0 10 -4 10 -10z m-397 -90 c3 -13
0 -20 -9 -20 -8 0 -14 9 -14 20 0 11 4 20 9 20 5 0 11 -9 14 -20z m-17 -56
c-3 -9 -6 -18 -6 -20 0 -2 -4 -4 -9 -4 -5 0 -7 9 -4 20 3 11 10 20 15 20 6 0
7 -7 4 -16z m-1436 -4 c0 -5 -2 -10 -4 -10 -3 0 -8 5 -11 10 -3 6 -1 10 4 10
6 0 11 -4 11 -10z m1420 -40 c0 -5 -4 -10 -10 -10 -5 0 -10 5 -10 10 0 6 5 10
10 10 6 0 10 -4 10 -10z m54 1 c3 -5 -1 -11 -9 -15 -9 -3 -15 0 -15 9 0 16 16
20 24 6z m1492 -42 c3 -6 0 -15 -7 -20 -21 -14 -53 -6 -57 14 -3 13 3 17 27
17 16 0 33 -5 37 -11z m-1516 -19 c0 -5 -2 -10 -4 -10 -3 0 -8 5 -11 10 -3 6
-1 10 4 10 6 0 11 -4 11 -10z m70 -79 c0 -6 -5 -13 -10 -16 -6 -4 -8 -14 -6
-23 3 -10 2 -23 -3 -31 -6 -9 -10 -4 -13 18 -2 17 -1 31 4 31 4 0 8 7 8 15 0
8 5 15 10 15 6 0 10 -4 10 -9z m45 -41 c3 -5 1 -10 -4 -10 -6 0 -11 5 -11 10
0 6 2 10 4 10 3 0 8 -4 11 -10z m-13 -62 c-7 -7 -12 -8 -12 -2 0 14 12 26 19
19 2 -3 -1 -11 -7 -17z m-1526 0 c4 -7 4 -10 -1 -6 -4 4 -15 2 -24 -5 -14 -11
-14 -10 -2 6 16 20 18 21 27 5z m-276 -58 c0 -5 -4 -10 -10 -10 -5 0 -10 5
-10 10 0 6 5 10 10 10 6 0 10 -4 10 -10z m-3445 -50 c3 -5 1 -10 -4 -10 -6 0
-11 5 -11 10 0 6 2 10 4 10 3 0 8 -4 11 -10z m5585 0 c0 -5 -7 -7 -15 -4 -8 4
-15 8 -15 10 0 2 7 4 15 4 8 0 15 -4 15 -10z m1671 -18 c-6 -2 -11 -8 -11 -14
0 -6 7 -7 16 -4 10 4 14 1 12 -6 -3 -7 -11 -14 -19 -16 -11 -2 -15 7 -16 33
-1 30 1 34 14 23 10 -8 11 -14 4 -16z m149 -2 c0 -5 -2 -10 -4 -10 -3 0 -8 5
-11 10 -3 6 -1 10 4 10 6 0 11 -4 11 -10z m-1033 -72 c-2 -23 -8 -43 -13 -45
-14 -5 -14 71 -1 79 18 12 18 11 14 -34z m-6382 -38 c4 -6 -5 -10 -20 -10 -15
0 -24 4 -20 10 3 6 12 10 20 10 8 0 17 -4 20 -10z m7305 0 c0 -5 -10 -10 -22
-10 -19 0 -20 2 -8 10 19 13 30 13 30 0z"/>
<path d="M5998 5273 c-32 -8 -20 -26 13 -19 17 3 37 6 43 6 6 0 4 5 -4 10 -16
10 -24 11 -52 3z"/>
<path d="M6125 5240 c3 -5 8 -10 11 -10 2 0 4 5 4 10 0 6 -5 10 -11 10 -5 0
-7 -4 -4 -10z"/>
<path d="M5895 5118 c26 -23 54 -56 62 -73 l14 -30 -6 30 c-5 29 -85 115 -107
115 -6 0 11 -19 37 -42z"/>
<path d="M5834 5099 c-8 -13 13 -36 23 -24 5 4 2 10 -5 12 -6 3 -10 9 -6 14 3
5 3 9 0 9 -3 0 -8 -5 -12 -11z"/>
<path d="M5920 5026 c0 -2 8 -10 18 -17 15 -13 16 -12 3 4 -13 16 -21 21 -21
13z"/>
<path d="M5233 4943 c-15 -5 -18 -43 -3 -43 5 0 16 -12 24 -27 9 -16 15 -22
16 -12 0 8 -4 19 -9 25 -5 5 -11 21 -13 35 -2 15 -8 24 -15 22z"/>
<path d="M6365 4519 c-4 -6 -5 -13 -2 -16 7 -7 27 6 27 18 0 12 -17 12 -25 -2z"/>
<path d="M8280 4240 c0 -5 5 -10 10 -10 6 0 10 5 10 10 0 6 -4 10 -10 10 -5 0
-10 -4 -10 -10z"/>
<path d="M6470 3900 c-9 -6 -10 -10 -3 -10 6 0 15 5 18 10 8 12 4 12 -15 0z"/>
<path d="M5455 3780 c-3 -5 3 -10 14 -10 12 0 21 -5 21 -11 0 -7 -10 -9 -24
-7 -14 3 -31 1 -38 -4 -10 -7 -8 -8 5 -4 9 3 17 2 17 -3 0 -4 11 -6 25 -3 28
5 34 36 9 46 -21 8 -22 8 -29 -4z"/>
<path d="M5522 3759 c-7 -12 -11 -23 -9 -26 8 -7 47 30 41 39 -8 13 -18 9 -32
-13z"/>
<path d="M7615 3740 c-3 -5 1 -10 9 -10 9 0 16 5 16 10 0 6 -4 10 -9 10 -6 0
-13 -4 -16 -10z"/>
<path d="M7565 3730 c-3 -5 -2 -10 4 -10 5 0 13 5 16 10 3 6 2 10 -4 10 -5 0
-13 -4 -16 -10z"/>
<path d="M5376 3709 c-17 -17 -18 -19 -3 -19 9 0 17 5 17 10 0 6 7 10 15 10 8
0 15 5 15 10 0 16 -23 10 -44 -11z"/>
<path d="M5472 3718 c-7 -7 -12 -16 -12 -21 0 -5 7 -1 16 8 9 9 14 18 12 20
-2 3 -10 -1 -16 -7z"/>
<path d="M7960 3709 c0 -5 5 -7 10 -4 6 3 10 8 10 11 0 2 -4 4 -10 4 -5 0 -10
-5 -10 -11z"/>
<path d="M7925 3690 c-3 -5 -2 -10 4 -10 5 0 13 5 16 10 3 6 2 10 -4 10 -5 0
-13 -4 -16 -10z"/>
<path d="M5385 3671 c3 -6 -8 -24 -25 -41 -25 -26 -34 -29 -46 -19 -12 10 -13
9 -8 -5 5 -12 14 -16 30 -13 16 3 24 0 24 -9 0 -8 -9 -14 -20 -14 -23 0 -24
-4 -10 -31 8 -15 7 -19 -5 -19 -8 0 -15 -5 -15 -11 0 -6 7 -9 15 -5 9 3 15 0
15 -9 0 -8 8 -15 18 -15 15 0 15 2 2 11 -11 8 -12 12 -2 16 6 2 10 9 6 14 -3
5 9 9 26 9 20 0 29 4 24 11 -3 6 -17 9 -30 6 -14 -2 -27 0 -30 4 -3 5 8 9 24
9 18 0 32 6 36 16 10 25 -1 29 -23 10 -17 -16 -19 -16 -24 5 -7 27 1 49 20 49
18 0 44 25 36 34 -10 10 -45 7 -38 -3z"/>
<path d="M5447 3659 c4 -13 8 -18 11 -10 2 7 -1 18 -6 23 -8 8 -9 4 -5 -13z"/>
<path d="M7553 3670 c-28 -11 -31 -40 -5 -40 18 0 52 29 52 43 0 9 -20 8 -47
-3z"/>
<path d="M5320 3640 c0 -5 5 -10 11 -10 5 0 7 5 4 10 -3 6 -8 10 -11 10 -2 0
-4 -4 -4 -10z"/>
<path d="M5194 3588 c10 -52 19 -53 31 0 6 28 4 32 -15 32 -20 0 -22 -4 -16
-32z"/>
<path d="M5388 3613 c7 -3 16 -2 19 1 4 3 -2 6 -13 5 -11 0 -14 -3 -6 -6z"/>
<path d="M5275 3590 c3 -5 8 -10 11 -10 2 0 4 5 4 10 0 6 -5 10 -11 10 -5 0
-7 -4 -4 -10z"/>
<path d="M2675 3460 c10 -11 20 -18 23 -15 7 6 -18 35 -31 35 -5 0 -2 -9 8
-20z"/>
<path d="M5010 3464 c0 -3 12 -21 26 -40 18 -23 22 -34 13 -34 -11 0 -11 -2 1
-10 8 -5 17 -6 20 -2 3 4 16 13 30 19 22 10 23 12 5 14 -11 1 -24 1 -29 0 -5
-1 -4 4 1 11 9 10 3 17 -28 30 -21 9 -39 14 -39 12z"/>
<path d="M2730 3390 c23 -33 43 -40 33 -12 -10 27 -24 42 -40 42 -11 0 -9 -7
7 -30z"/>
<path d="M2811 3391 c-11 -19 -8 -25 12 -22 4 0 6 -4 5 -10 -2 -6 3 -14 11
-17 8 -2 11 0 8 5 -3 5 7 7 25 5 25 -4 28 -6 14 -14 -9 -5 -16 -13 -16 -17 0
-4 24 4 53 19 29 15 64 30 78 35 20 6 15 9 -31 15 -30 4 -76 11 -102 15 -41 6
-48 5 -57 -14z"/>
<path d="M2511 3376 c2 -2 20 -6 39 -10 25 -4 31 -3 20 4 -14 9 -69 15 -59 6z"/>
<path d="M5235 3370 c-3 -5 -1 -10 4 -10 6 0 11 5 11 10 0 6 -2 10 -4 10 -3 0
-8 -4 -11 -10z"/>
<path d="M4753 3363 c9 -2 25 -2 35 0 9 3 1 5 -18 5 -19 0 -27 -2 -17 -5z"/>
<path d="M4871 2938 c-1 -366 1 -418 15 -432 24 -25 64 -31 93 -15 l26 15 3
403 c1 252 -1 400 -7 396 -5 -3 -8 -14 -6 -24 2 -11 -3 -27 -11 -38 -12 -16
-15 -16 -24 -3 -8 13 -10 12 -10 -5 -1 -19 -1 -19 -14 -2 -7 9 -18 17 -24 17
-16 0 -25 19 -33 65 -4 22 -7 -148 -8 -377z"/>
<path d="M2630 3326 c0 -2 8 -10 18 -17 15 -13 16 -12 3 4 -13 16 -21 21 -21
13z"/>
<path d="M3606 3310 c5 -22 68 -208 157 -470 l25 -75 1 275 c0 237 -2 272 -14
257 -10 -14 -24 -18 -52 -16 -28 2 -37 -1 -35 -11 3 -11 0 -11 -15 1 -10 8
-21 19 -25 24 -4 6 -8 6 -8 1 0 -4 -9 2 -21 15 l-20 24 7 -25z"/>
<path d="M2810 3312 c0 -14 39 -46 47 -39 3 4 -4 16 -17 27 -26 22 -30 24 -30
12z"/>
<path d="M3030 3217 c-48 -24 -50 -40 -48 -362 1 -165 5 -311 8 -325 8 -30 52
-54 85 -46 56 14 55 10 55 370 0 305 -1 334 -17 348 -27 24 -55 29 -83 15z
m33 -607 c11 0 17 -3 14 -7 -4 -3 5 -15 20 -25 24 -15 25 -18 8 -18 -31 1
-114 42 -92 47 9 3 17 10 18 16 0 8 2 8 6 0 2 -7 14 -13 26 -13z"/>
<path d="M4295 3220 c-45 -17 -45 -22 -46 -362 0 -178 3 -331 6 -340 9 -22 59
-41 86 -33 20 7 20 8 6 17 -25 13 -21 31 13 63 l30 29 0 296 c0 270 -2 298
-17 312 -24 21 -54 28 -78 18z"/>
<path d="M6020 3060 c0 -168 -5 -157 75 -151 49 4 56 23 54 146 -2 150 -5 155
-74 155 l-55 0 0 -150z"/>
<path d="M5660 2875 c0 -32 2 -56 5 -53 7 7 9 97 2 105 -4 3 -7 -20 -7 -52z"/>
<path d="M6370 2800 c0 -5 5 -10 11 -10 5 0 7 5 4 10 -3 6 -8 10 -11 10 -2 0
-4 -4 -4 -10z"/>
<path d="M5565 2640 c4 -6 11 -8 16 -5 14 9 11 15 -7 15 -8 0 -12 -5 -9 -10z"/>
<path d="M5676 2605 c-9 -26 -7 -32 5 -12 6 10 9 21 6 23 -2 3 -7 -2 -11 -11z"/>
<path d="M5750 2541 c0 -5 5 -13 10 -16 6 -3 10 -2 10 4 0 5 -4 13 -10 16 -5
3 -10 2 -10 -4z"/>
<path d="M8430 4820 c0 -5 5 -10 10 -10 6 0 10 5 10 10 0 6 -4 10 -10 10 -5 0
-10 -4 -10 -10z"/>
<path d="M8360 4590 c0 -5 5 -10 10 -10 6 0 10 5 10 10 0 6 -4 10 -10 10 -5 0
-10 -4 -10 -10z"/>
<path d="M8745 4780 c-3 -5 -1 -10 4 -10 6 0 11 5 11 10 0 6 -2 10 -4 10 -3 0
-8 -4 -11 -10z"/>
<path d="M8801 4674 c0 -11 3 -14 6 -6 3 7 2 16 -1 19 -3 4 -6 -2 -5 -13z"/>
<path d="M1350 1600 c0 -5 5 -10 10 -10 6 0 10 5 10 10 0 6 -4 10 -10 10 -5 0
-10 -4 -10 -10z"/>
<path d="M7425 1358 c-25 -38 -26 -40 -8 -54 11 -8 13 -13 6 -14 -7 0 -13 -7
-13 -15 0 -18 -5 -18 -31 -5 -20 11 -28 -3 -9 -15 8 -5 7 -11 -1 -21 -7 -9 -8
-14 -1 -14 6 0 -2 -15 -19 -32 -16 -18 -32 -42 -35 -53 -4 -11 -16 -29 -28
-40 -22 -20 -41 -53 -38 -67 1 -5 -3 -8 -9 -8 -6 0 -9 -7 -6 -15 4 -8 2 -17
-3 -20 -6 -4 -10 -2 -10 4 0 6 -7 8 -14 5 -11 -4 -14 -20 -12 -60 2 -30 -1
-54 -5 -54 -20 0 -7 -21 24 -36 17 -9 44 -31 59 -49 30 -35 76 -54 88 -35 4 7
1 25 -7 41 -16 32 -11 87 11 128 10 18 11 34 4 59 -12 43 -6 57 29 74 24 12
28 19 25 48 -2 19 -8 37 -13 38 -15 6 -10 38 9 54 9 8 36 16 59 17 50 3 70
-13 102 -81 20 -43 24 -46 47 -38 13 5 39 7 56 5 18 -3 26 -2 18 1 -8 4 -17
10 -20 13 -3 3 -14 11 -25 17 -14 8 -21 23 -23 52 -3 40 -27 63 -51 47 -12 -7
-81 63 -82 84 -1 9 -1 28 0 42 1 21 -5 28 -24 31 -20 4 -29 -2 -50 -34z m71
-118 c-17 -6 -36 -5 -45 0 -11 7 -3 9 29 9 42 -1 43 -1 16 -9z"/>
<path d="M6840 1271 l-45 -26 30 -5 c21 -4 30 -11 31 -25 2 -40 4 -45 22 -45
9 0 22 -8 29 -18 16 -26 57 -22 61 6 2 12 -1 22 -7 22 -6 0 -11 5 -11 11 0 5
5 7 11 3 7 -4 7 1 -1 16 -8 16 -9 30 -1 52 6 17 11 31 11 32 0 1 -19 1 -43 2
-27 0 -57 -9 -87 -25z"/>
<path d="M7918 1276 c-10 -7 -18 -16 -18 -20 0 -13 29 -37 42 -35 38 5 49 -2
46 -25 -3 -23 16 -56 33 -56 4 0 8 17 7 39 0 29 -8 47 -34 75 -36 39 -49 43
-76 22z m32 -36 c-8 -5 -17 -7 -19 -4 -3 3 1 9 9 14 8 5 17 7 19 4 3 -3 -1 -9
-9 -14z"/>
<path d="M8190 1240 c0 -11 7 -20 15 -20 13 0 14 4 5 20 -6 11 -13 20 -15 20
-3 0 -5 -9 -5 -20z"/>
<path d="M7840 1167 c0 -14 -4 -28 -9 -32 -6 -3 -9 -13 -9 -23 0 -9 -2 -24 -5
-32 -10 -25 41 -70 78 -70 19 0 19 15 -1 46 -11 16 -15 37 -12 62 3 20 2 46
-3 57 -4 11 -8 14 -8 6 -1 -11 -4 -11 -16 -1 -13 11 -15 8 -15 -13z"/>
<path d="M7000 1100 c0 -5 5 -10 11 -10 5 0 7 5 4 10 -3 6 -8 10 -11 10 -2 0
-4 -4 -4 -10z"/>
<path d="M8463 1023 c9 -2 23 -2 30 0 6 3 -1 5 -18 5 -16 0 -22 -2 -12 -5z"/>
<path d="M6715 1000 c-3 -5 3 -10 14 -10 12 0 21 5 21 10 0 6 -6 10 -14 10 -8
0 -18 -4 -21 -10z"/>
<path d="M7490 966 c0 -2 7 -6 15 -10 8 -3 15 -1 15 4 0 6 -7 10 -15 10 -8 0
-15 -2 -15 -4z"/>
<path d="M7596 961 c-7 -11 30 -59 38 -50 7 7 -16 59 -26 59 -4 0 -9 -4 -12
-9z"/>
<path d="M6930 835 c0 -8 5 -15 10 -15 6 0 10 7 10 15 0 8 -4 15 -10 15 -5 0
-10 -7 -10 -15z"/>
<path d="M8267 563 c-10 -9 13 -33 30 -33 10 0 13 6 9 16 -3 9 -6 18 -6 20 0
7 -26 5 -33 -3z"/>
<path d="M8620 560 c0 -5 5 -10 10 -10 6 0 10 5 10 10 0 6 -4 10 -10 10 -5 0
-10 -4 -10 -10z"/>
<path d="M8397 456 c-37 -13 -86 -34 -108 -46 -23 -11 -44 -19 -47 -16 -2 3
-13 1 -23 -5 -11 -5 -19 -6 -19 -1 0 6 -9 12 -20 15 -17 4 -18 1 -14 -27 10
-56 8 -55 71 -35 32 10 81 22 108 26 36 6 49 12 48 23 -3 18 45 47 69 42 9 -2
20 -12 23 -23 6 -19 30 -24 59 -13 26 10 18 32 -14 39 -21 5 -30 13 -30 26 0
25 -20 24 -103 -5z"/>
<path d="M8400 299 c-79 -13 -100 -18 -99 -27 3 -20 -2 -25 -12 -12 -9 12 -10
12 -5 -3 3 -10 6 -36 6 -58 0 -22 5 -39 11 -39 6 0 9 7 5 15 -3 8 -1 15 4 15
6 0 10 -6 10 -14 0 -16 35 -27 57 -19 9 4 13 14 10 29 -2 12 0 29 4 36 6 8 9
0 9 -24 0 -20 5 -40 10 -43 9 -6 14 14 11 42 -1 6 4 15 10 19 9 5 10 -3 5 -31
-6 -31 -5 -37 8 -32 11 4 13 1 9 -11 -3 -10 2 -7 12 6 12 17 16 34 12 59 -7
42 -15 52 -26 34 -6 -10 -10 -9 -15 4 -3 9 -10 13 -16 10 -5 -3 -10 -3 -10 0
0 3 16 13 35 21 32 13 38 13 51 -1 9 -8 17 -15 19 -15 8 0 35 32 35 41 0 11
-74 10 -150 -2z m-12 -47 c3 -11 0 -12 -15 -3 -14 7 -24 7 -33 -2 -12 -10 -12
-9 0 6 15 20 41 19 48 -1z m-68 -32 c0 -5 -2 -10 -4 -10 -3 0 -8 5 -11 10 -3
6 -1 10 4 10 6 0 11 -4 11 -10z m47 -27 c-3 -10 -5 -4 -5 12 0 17 2 24 5 18 2
-7 2 -21 0 -30z m-30 -15 c-3 -7 -5 -2 -5 12 0 14 2 19 5 13 2 -7 2 -19 0 -25z"/>
<path d="M8250 250 c0 -5 -6 -7 -14 -4 -8 3 -16 -2 -19 -13 -4 -16 -5 -16 -6
0 -1 20 -27 23 -34 5 -4 -10 -6 -10 -6 0 -1 18 -19 15 -24 -5 -4 -17 -5 -17
-6 0 -1 20 -21 23 -39 5 -9 -9 -12 -9 -13 2 0 10 -4 7 -9 -5 -7 -17 -9 -17 -9
-2 -1 9 -6 17 -12 17 -8 0 -9 -12 -4 -37 9 -50 17 -61 26 -37 7 17 8 17 8 2 1
-21 17 -24 24 -5 3 9 7 9 20 -2 10 -7 17 -10 17 -6 0 5 9 0 20 -10 20 -18 20
-17 21 11 1 17 3 22 6 12 6 -23 23 -23 23 0 1 15 2 15 12 -2 10 -18 12 -15 24
25 16 53 17 59 4 59 -5 0 -10 -4 -10 -10z m-53 -42 c-3 -8 -6 -5 -6 6 -1 11 2
17 5 13 3 -3 4 -12 1 -19z"/>
<path d="M7995 220 c-8 -12 20 -24 35 -15 6 3 8 11 5 16 -8 12 -32 12 -40 -1z"/>
<path d="M8265 170 c-3 -5 -1 -10 4 -10 6 0 11 5 11 10 0 6 -2 10 -4 10 -3 0
-8 -4 -11 -10z"/>
<path d="M6968 153 c7 -3 16 -2 19 1 4 3 -2 6 -13 5 -11 0 -14 -3 -6 -6z"/>
<path d="M8347 133 c-12 -12 -7 -22 8 -17 8 4 15 10 15 15 0 11 -14 12 -23 2z"/>
<path d="M7178 73 c7 -3 16 -2 19 1 4 3 -2 6 -13 5 -11 0 -14 -3 -6 -6z"/>
<path d="M2645 1380 c-3 -5 -1 -10 4 -10 6 0 11 5 11 10 0 6 -2 10 -4 10 -3 0
-8 -4 -11 -10z"/>
<path d="M4495 1950 c3 -5 8 -10 11 -10 2 0 4 5 4 10 0 6 -5 10 -11 10 -5 0
-7 -4 -4 -10z"/>
<path d="M4661 1467 c-9 -24 -41 -56 -41 -41 0 5 -4 3 -9 -5 -10 -15 7 -79 27
-100 7 -7 11 -19 9 -25 -34 -84 -43 -103 -53 -114 -8 -8 -15 -9 -19 -2 -3 5
-14 10 -25 10 -13 0 -17 -5 -13 -21 5 -17 11 -20 33 -15 51 10 84 -61 39 -84
-12 -7 -18 -18 -15 -26 4 -10 2 -12 -6 -8 -8 5 -9 2 -5 -9 4 -10 0 -20 -10
-26 -14 -7 -11 -11 15 -25 l32 -17 0 46 c0 39 4 47 25 57 14 6 32 22 40 35 9
12 22 23 30 23 8 0 15 5 15 11 0 5 -4 7 -10 4 -5 -3 -10 -2 -10 4 0 5 -10 11
-22 13 -28 4 -38 56 -14 73 8 6 14 19 12 29 -3 19 37 66 54 66 6 0 10 6 10 14
0 15 -69 156 -76 156 -2 0 -8 -10 -13 -23z m34 -337 c3 -5 -7 -16 -23 -24 -28
-14 -29 -14 -27 7 1 12 3 23 4 25 3 6 41 1 46 -8z"/>
<path d="M3962 1389 c2 -6 8 -10 13 -10 5 0 11 4 13 10 2 6 -4 11 -13 11 -9 0
-15 -5 -13 -11z"/>
<path d="M2351 1273 c-1 -6 -9 -14 -19 -18 -25 -7 -75 -106 -66 -130 6 -14 13
-6 34 39 15 31 35 65 45 76 9 10 15 25 12 32 -4 9 -6 9 -6 1z"/>
<path d="M2500 1256 c0 -9 5 -16 10 -16 6 0 10 4 10 9 0 6 -4 13 -10 16 -5 3
-10 -1 -10 -9z"/>
<path d="M3725 1217 c-16 -48 -28 -107 -26 -134 2 -40 -13 -49 -38 -24 -11 11
-32 22 -48 25 -71 13 -77 19 -76 64 1 10 -2 10 -13 1 -11 -9 -19 -6 -40 16
-33 36 -38 28 -14 -20 11 -22 20 -48 20 -60 -1 -19 -1 -19 -14 -2 -14 19 -31
24 -20 6 8 -13 -13 -29 -40 -29 -22 0 -45 -27 -46 -55 -1 -11 -4 -15 -6 -8 -3
7 -19 2 -45 -15 -24 -16 -35 -28 -28 -33 8 -4 8 -8 1 -13 -6 -4 -9 -13 -5 -21
3 -9 -1 -15 -8 -16 -8 0 7 -7 33 -15 39 -12 51 -21 62 -48 8 -19 34 -47 60
-65 25 -18 46 -36 46 -41 0 -5 9 -12 20 -15 11 -3 23 -17 26 -31 3 -13 10 -22
14 -19 4 3 11 -2 14 -11 3 -9 15 -14 28 -12 18 2 23 10 25 40 3 35 1 39 -34
53 -25 11 -40 12 -47 5 -17 -17 -23 -12 -46 41 -36 86 -11 160 61 179 58 16
91 0 115 -53 11 -23 18 -45 17 -49 -2 -4 8 -28 22 -54 14 -26 25 -53 25 -61 0
-7 7 -16 15 -19 8 -4 13 -9 10 -13 -2 -4 10 -5 26 -3 19 3 49 -4 80 -18 l49
-23 25 27 c32 34 31 41 -6 109 -30 56 -49 78 -49 58 0 -15 -37 -14 -46 1 -4 6
-3 8 4 5 6 -5 8 0 5 13 -7 26 -19 18 -43 -29 -38 -75 -80 -56 -80 35 0 45 5
62 27 90 18 25 23 38 15 43 -16 10 -19 158 -4 173 16 16 15 25 -3 32 -9 3 -18
0 -20 -7z"/>
<path d="M1520 1155 c0 -8 4 -15 10 -15 14 0 42 -59 34 -72 -4 -7 -3 -8 5 -4
7 4 15 -2 20 -16 6 -13 10 -16 10 -8 1 8 10 21 22 28 16 10 19 19 14 39 -4 17
-1 29 7 34 9 6 4 9 -14 9 -17 0 -28 -6 -31 -17 -4 -17 -5 -17 -6 0 -1 10 -9
17 -20 17 -11 0 -23 5 -26 10 -9 15 -25 12 -25 -5z"/>
<path d="M2591 1154 c0 -11 3 -14 6 -6 3 7 2 16 -1 19 -3 4 -6 -2 -5 -13z"/>
<path d="M2030 1130 c0 -33 59 -56 75 -30 4 6 -5 10 -21 10 -15 0 -33 8 -40
18 -11 14 -13 15 -14 2z"/>
<path d="M1260 1119 c0 -5 5 -7 10 -4 6 3 10 8 10 11 0 2 -4 4 -10 4 -5 0 -10
-5 -10 -11z"/>
<path d="M1653 1105 c0 -8 4 -15 9 -15 4 0 8 4 8 9 0 6 -4 12 -8 15 -5 3 -9
-1 -9 -9z"/>
<path d="M1678 1089 c-10 -10 -15 -20 -10 -20 4 -1 12 -2 17 -4 6 -1 18 -3 28
-3 21 -2 22 -33 2 -73 -9 -16 -13 -34 -10 -39 3 -6 0 -10 -7 -10 -23 0 -36
-34 -39 -106 l-4 -69 60 3 c55 3 63 7 98 42 20 22 37 45 37 53 0 8 -9 40 -20
73 -12 32 -20 70 -19 84 2 41 0 45 -16 24 -8 -11 -15 -14 -15 -6 0 6 -5 12
-11 12 -6 0 -22 14 -36 30 -29 35 -32 35 -55 9z"/>
<path d="M1242 1083 c-15 -27 -15 -53 -1 -53 5 0 7 5 4 10 -4 6 -1 17 5 25 7
8 10 20 8 27 -3 8 -9 5 -16 -9z"/>
<path d="M1439 1075 c-15 -8 -29 -22 -33 -30 -3 -9 -9 -14 -14 -11 -4 2 -14 1
-22 -4 -9 -5 -19 -5 -26 1 -9 7 -21 5 -39 -7 l-27 -18 31 -25 c17 -14 31 -31
31 -37 0 -7 11 -19 25 -28 21 -14 24 -20 15 -36 -6 -11 -17 -20 -25 -20 -8 0
-15 -4 -15 -10 0 -5 5 -10 10 -10 5 0 9 -3 8 -7 -6 -32 71 -73 136 -73 10 0
28 -7 38 -17 30 -27 33 -8 12 78 -15 64 -27 91 -61 132 -49 60 -53 80 -18 103
14 9 22 20 19 25 -7 12 -14 11 -45 -6z"/>
<path d="M4170 1080 c0 -5 5 -10 10 -10 6 0 10 5 10 10 0 6 -4 10 -10 10 -5 0
-10 -4 -10 -10z"/>
<path d="M4808 1068 c-3 -19 1 -33 13 -44 23 -21 25 -5 5 41 l-13 30 -5 -27z"/>
<path d="M4285 1062 c36 -30 51 -66 50 -112 -1 -25 -5 -52 -10 -60 -8 -13 -7
-13 9 0 29 23 34 50 19 99 -15 50 -48 91 -72 91 -13 -1 -12 -4 4 -18z"/>
<path d="M2865 1050 c3 -5 11 -10 16 -10 6 0 7 5 4 10 -3 6 -11 10 -16 10 -6
0 -7 -4 -4 -10z"/>
<path d="M2688 1043 c-4 -6 -3 -72 1 -130 2 -20 81 -17 81 3 0 20 70 84 93 84
9 0 27 -5 40 -12 12 -6 29 -14 37 -18 8 -4 17 -18 20 -31 3 -13 11 -24 18 -23
42 4 42 2 20 54 -11 28 -23 50 -27 51 -3 1 -24 2 -46 3 -22 0 -46 5 -53 9 -18
12 -74 -15 -67 -32 4 -10 2 -11 -8 -3 -7 6 -26 10 -42 9 -22 -2 -34 3 -46 21
-9 13 -19 20 -21 15z"/>
<path d="M4115 1020 c-10 -11 -21 -17 -25 -15 -9 6 -20 -19 -20 -43 0 -9 7
-36 16 -59 14 -35 22 -43 42 -43 18 0 22 3 14 13 -13 16 -21 131 -10 151 12
22 5 20 -17 -4z"/>
<path d="M2497 1003 c-9 -8 -9 -53 -1 -53 9 0 44 41 44 52 0 10 -34 11 -43 1z"/>
<path d="M4830 980 c0 -5 5 -10 11 -10 5 0 7 5 4 10 -3 6 -8 10 -11 10 -2 0
-4 -4 -4 -10z"/>
<path d="M906 929 c-15 -16 -24 -34 -21 -40 4 -5 1 -8 -6 -7 -7 2 -15 -5 -17
-14 -2 -14 3 -18 22 -18 23 0 40 14 41 33 0 4 10 19 23 32 22 23 22 24 4 34
-16 8 -24 5 -46 -20z"/>
<path d="M1066 880 c-3 -17 -3 -51 1 -76 l6 -46 23 38 c25 41 31 79 14 89 -6
4 -8 11 -5 16 4 5 -3 9 -13 9 -14 0 -21 -9 -26 -30z"/>
<path d="M4846 901 c-4 -7 -5 -15 -2 -18 9 -9 19 4 14 18 -4 11 -6 11 -12 0z"/>
<path d="M3086 855 c-3 -8 -2 -15 3 -15 4 0 14 -12 21 -27 l12 -28 9 24 c7 18
5 29 -7 42 -21 23 -30 24 -38 4z"/>
<path d="M1165 819 c-23 -29 -24 -33 -10 -49 8 -9 15 -26 15 -38 0 -25 28 -30
60 -10 16 10 24 10 40 0 29 -18 42 -15 31 6 -5 9 -15 37 -21 62 -14 50 -23 60
-62 60 -17 0 -35 -11 -53 -31z"/>
<path d="M4666 836 c7 -17 -22 -76 -37 -76 -8 0 -7 -5 1 -15 11 -13 15 -10 30
23 10 22 23 43 29 47 9 5 9 10 0 21 -15 18 -30 18 -23 0z"/>
<path d="M2320 820 c0 -48 11 -60 59 -59 l46 1 -38 11 c-23 7 -44 22 -53 37
-7 14 -13 19 -14 10z"/>
<path d="M2765 808 c8 -26 32 -48 52 -48 24 0 -10 65 -36 68 -20 3 -22 0 -16
-20z"/>
<path d="M2880 820 c0 -5 5 -10 10 -10 6 0 10 5 10 10 0 6 -4 10 -10 10 -5 0
-10 -4 -10 -10z"/>
<path d="M2661 774 c-27 -35 -28 -85 -1 -102 12 -7 24 -10 29 -8 9 6 9 122 -1
131 -3 3 -15 -6 -27 -21z"/>
<path d="M2940 789 c0 -5 5 -7 10 -4 6 3 10 8 10 11 0 2 -4 4 -10 4 -5 0 -10
-5 -10 -11z"/>
<path d="M2443 775 c-3 -9 2 -24 11 -34 9 -10 16 -24 16 -32 0 -12 2 -12 9 0
7 10 3 23 -10 39 -10 13 -16 28 -13 33 3 5 3 9 -1 9 -3 0 -8 -7 -12 -15z"/>
<path d="M4228 783 c-25 -4 -26 -5 -11 -23 16 -19 17 -18 35 2 20 23 22 29 11
27 -5 -1 -20 -4 -35 -6z"/>
<path d="M3085 772 c-2 -3 -13 -5 -24 -6 -10 0 -33 -13 -50 -28 -17 -16 -40
-28 -51 -28 -15 0 -20 -7 -20 -25 0 -14 -4 -25 -10 -25 -16 0 -12 -73 6 -116
15 -35 17 -37 24 -18 10 25 88 94 107 94 7 0 13 5 13 11 0 16 70 41 96 35 14
-4 26 -16 30 -31 7 -28 24 -24 24 5 0 34 -32 87 -64 106 -17 10 -34 18 -38 16
-5 -1 -8 2 -8 6 0 9 -27 12 -35 4z"/>
<path d="M4357 753 c-8 -8 -9 -56 -1 -76 4 -11 12 -8 35 15 34 35 34 37 12 54
-20 15 -36 17 -46 7z"/>
<path d="M2555 741 c-3 -5 -1 -12 5 -16 5 -3 10 1 10 9 0 18 -6 21 -15 7z"/>
<path d="M4580 727 c0 -7 4 -18 9 -25 6 -11 9 -9 14 7 3 12 -1 22 -9 25 -8 3
-14 0 -14 -7z"/>
<path d="M1080 694 c0 -8 5 -12 10 -9 6 3 10 10 10 16 0 5 -4 9 -10 9 -5 0
-10 -7 -10 -16z"/>
<path d="M2860 691 c0 -36 30 -35 43 2 5 13 1 17 -18 17 -18 0 -25 -5 -25 -19z"/>
<path d="M4951 694 c0 -11 3 -14 6 -6 3 7 2 16 -1 19 -3 4 -6 -2 -5 -13z"/>
<path d="M540 680 c0 -5 5 -10 10 -10 6 0 10 5 10 10 0 6 -4 10 -10 10 -5 0
-10 -4 -10 -10z"/>
<path d="M1337 683 c-11 -10 -8 -23 5 -23 6 0 20 -7 30 -17 30 -27 30 -9 0 20
-16 15 -31 24 -35 20z"/>
<path d="M422 671 c-10 -6 -8 -10 10 -14 14 -4 29 -1 38 8 13 13 11 15 -10 15
-14 0 -31 -4 -38 -9z"/>
<path d="M2585 650 c-5 -14 -13 -54 -19 -90 -11 -62 -12 -65 -45 -71 -18 -4
-37 -13 -42 -20 -6 -10 -10 -10 -23 1 -14 11 -20 10 -36 -5 -25 -23 -25 -29 1
-81 13 -28 19 -57 17 -86 -3 -44 -11 -49 -50 -33 -13 5 -18 2 -18 -8 0 -29 12
-29 153 0 15 3 26 10 24 17 -4 13 7 25 56 55 20 12 37 29 37 36 0 7 4 15 9 17
13 4 -10 88 -25 88 -6 0 -18 8 -27 18 -15 17 -15 22 1 68 15 40 16 55 6 84
-11 33 -11 34 -19 10z"/>
<path d="M3426 662 c-3 -3 -6 -9 -6 -14 0 -9 79 -63 84 -57 5 7 -72 77 -78 71z"/>
<path d="M4733 604 c-24 -27 -38 -34 -66 -34 -20 0 -39 5 -42 10 -4 6 -11 8
-16 4 -6 -4 -6 -11 2 -20 6 -8 8 -14 3 -14 -5 0 -2 -4 6 -10 9 -5 19 -5 27 2
8 6 16 8 20 4 3 -3 2 -6 -4 -6 -24 0 -7 -34 23 -46 44 -19 54 -18 54 5 0 15
26 82 47 122 2 4 -2 9 -10 12 -7 3 -27 -10 -44 -29z"/>
<path d="M2410 602 c0 -13 -5 -32 -10 -43 -12 -21 -2 -23 65 -19 42 2 49 13
36 52 -10 32 -15 34 -51 34 -35 0 -40 -3 -40 -24z"/>
<path d="M1287 590 c-13 -18 -21 -20 -63 -15 -58 7 -87 -12 -97 -63 -5 -25 -2
-34 13 -42 11 -6 23 -10 27 -9 35 6 54 -4 69 -36 18 -38 29 -44 38 -19 12 31
7 64 -9 58 -24 -9 -18 20 15 83 30 57 35 82 7 43z"/>
<path d="M2662 587 c-5 -6 -13 -22 -16 -34 -6 -19 -4 -23 16 -23 13 0 34 9 47
19 l24 19 -30 16 c-24 12 -33 13 -41 3z"/>
<path d="M7 583 c-4 -3 -7 -29 -7 -56 0 -43 2 -48 15 -37 11 9 14 25 11 53 -6
43 -9 51 -19 40z"/>
<path d="M1430 580 c0 -5 7 -10 15 -10 8 0 15 -4 15 -8 0 -11 71 -82 82 -82
24 0 -9 41 -70 88 -33 24 -42 27 -42 12z"/>
<path d="M4020 555 c-13 -16 -6 -35 15 -35 15 0 24 19 17 38 -6 16 -17 15 -32
-3z"/>
<path d="M3217 530 c-14 -12 -40 -20 -61 -20 -22 0 -36 -5 -36 -12 0 -7 -12
-22 -27 -34 l-27 -21 28 -27 c16 -14 23 -26 17 -26 -7 0 -9 -4 -6 -10 9 -14
-19 -12 -33 2 -13 13 -16 1 -6 -27 9 -22 57 -45 82 -38 30 7 73 75 79 125 8
58 19 78 46 78 21 1 22 1 3 15 -25 19 -28 19 -59 -5z"/>
<path d="M3830 540 c0 -5 -5 -10 -10 -10 -6 0 -20 -9 -31 -19 -11 -10 -32 -18
-45 -16 -27 3 -32 -10 -9 -22 13 -8 13 -11 0 -30 -15 -21 -55 -38 -55 -22 0 5
-7 9 -15 9 -9 0 -12 -6 -8 -17 5 -13 2 -15 -11 -10 -10 4 -27 7 -39 7 -18 0
-19 2 -7 10 11 7 9 11 -14 20 -16 6 -31 9 -33 6 -3 -2 -13 3 -24 12 -14 12
-15 18 -6 24 9 5 9 10 1 18 -9 9 -14 9 -19 0 -5 -8 -12 -6 -26 6 -18 16 -19
16 -19 -3 0 -22 30 -52 107 -107 29 -21 62 -49 74 -64 19 -25 19 -27 3 -39
-16 -12 -15 -13 8 -13 15 0 28 5 30 11 2 7 12 7 31 -2 23 -10 27 -19 27 -51 0
-28 4 -38 16 -38 27 0 51 19 58 45 4 15 16 27 31 31 30 8 31 11 4 33 -36 29
-31 181 6 181 20 0 27 30 11 46 -17 16 -36 19 -36 4z m-133 -226 c-3 -3 -12
-4 -19 -1 -8 3 -5 6 6 6 11 1 17 -2 13 -5z"/>
<path d="M2228 518 c-9 -7 -19 -31 -23 -52 -5 -39 -5 -39 15 -21 14 13 23 15
33 7 15 -13 43 1 33 16 -9 15 21 35 41 28 10 -4 14 -4 10 0 -4 4 -2 13 3 19
14 17 -90 19 -112 3z"/>
<path d="M3318 515 c-3 -3 2 -21 10 -40 12 -26 24 -36 54 -43 37 -10 38 -9 33
15 -7 44 -33 73 -64 73 -15 0 -30 -2 -33 -5z"/>
<path d="M450 475 c0 -9 7 -18 15 -21 8 -4 12 -10 9 -16 -3 -5 3 -4 13 3 11 6
25 20 32 30 10 17 8 19 -29 19 -29 0 -40 -4 -40 -15z"/>
<path d="M4189 448 c-5 -154 -4 -205 8 -223 7 -11 13 -27 13 -37 0 -11 7 -18
19 -18 17 0 18 4 11 32 -21 85 -25 118 -20 188 4 51 1 79 -7 88 -19 20 -23 15
-24 -30z"/>
<path d="M4476 474 c-5 -14 -4 -15 9 -4 17 14 19 20 6 20 -5 0 -12 -7 -15 -16z"/>
<path d="M3570 460 c0 -5 7 -10 15 -10 8 0 15 5 15 10 0 6 -7 10 -15 10 -8 0
-15 -4 -15 -10z"/>
<path d="M790 435 c0 -8 5 -15 10 -15 6 0 10 7 10 15 0 8 -4 15 -10 15 -5 0
-10 -7 -10 -15z"/>
<path d="M1837 437 c-8 -7 -19 -21 -25 -32 -11 -19 -11 -19 -12 5 -2 24 -2 24
-12 -5 -6 -16 -22 -42 -36 -57 -14 -16 -21 -28 -15 -28 6 0 16 6 22 14 6 7 33
21 59 31 42 16 72 38 72 55 0 3 -9 11 -19 17 -14 9 -22 9 -34 0z"/>
<path d="M1521 405 c-22 -38 -49 -45 -75 -20 -23 23 -32 18 -34 -19 -2 -30 0
-33 21 -29 16 3 28 -3 40 -19 51 -70 46 -66 48 -33 0 17 0 45 -1 62 -1 19 5
40 14 49 14 14 22 44 12 44 -2 0 -13 -16 -25 -35z"/>
<path d="M1576 434 c7 -3 10 -13 7 -22 -3 -12 4 -23 20 -31 21 -11 27 -11 45
5 l21 18 -27 12 c-29 12 -86 28 -66 18z"/>
<path d="M42 420 c-38 -9 -46 -14 -41 -29 3 -6 24 -1 54 13 51 25 46 30 -13
16z"/>
<path d="M2276 409 c-16 -16 -17 -19 -4 -19 18 0 43 26 31 33 -4 2 -17 -4 -27
-14z"/>
<path d="M4520 388 c0 -29 17 -39 26 -15 6 16 36 18 46 3 4 -6 10 -7 14 -3 14
13 -27 46 -57 45 -25 -1 -29 -5 -29 -30z"/>
<path d="M2190 400 c0 -5 5 -10 10 -10 6 0 10 5 10 10 0 6 -4 10 -10 10 -5 0
-10 -4 -10 -10z"/>
<path d="M536 393 c-16 -3 -40 -12 -53 -20 -12 -8 -32 -13 -43 -10 -29 8 -56
-34 -40 -63 6 -11 8 -25 5 -30 -8 -13 21 -13 63 0 28 7 33 7 28 -5 -8 -21 6
-25 34 -9 19 10 21 13 8 14 -10 0 -18 5 -18 11 0 5 -4 8 -8 5 -4 -2 -14 -1
-22 4 -12 8 -10 13 10 27 14 10 36 18 50 19 14 1 49 3 78 4 55 3 66 9 57 32
-4 9 -17 13 -39 10 -19 -2 -37 1 -40 7 -7 11 -17 12 -70 4z"/>
<path d="M2827 384 c-16 -16 -5 -25 26 -22 17 2 31 8 30 13 -3 12 -46 19 -56
9z"/>
<path d="M1117 362 c-9 -10 -17 -23 -17 -29 0 -6 -7 -16 -15 -23 -16 -14 -20
-30 -6 -30 12 0 63 79 59 91 -2 6 -11 2 -21 -9z"/>
<path d="M2668 362 c-24 -5 -22 -17 5 -35 32 -21 72 -17 72 8 0 20 -42 35 -77
27z"/>
<path d="M2930 348 c0 -7 7 -22 15 -32 16 -21 18 -15 9 22 -7 23 -24 31 -24
10z"/>
<path d="M4046 345 c-4 -12 -9 -13 -24 -4 -34 21 -52 5 -52 -48 0 -26 -3 -58
-6 -70 -5 -19 -2 -23 15 -23 11 0 21 -4 21 -10 0 -5 6 -10 14 -10 17 0 125 49
110 49 -12 1 -34 66 -34 101 0 13 -3 20 -7 17 -3 -4 -12 -2 -18 3 -9 8 -14 6
-19 -5z m14 -56 c0 -10 -4 -19 -10 -19 -5 0 -10 7 -10 15 0 8 -6 15 -12 15 -9
0 -8 3 2 9 18 12 30 5 30 -20z"/>
<path d="M277 335 c-12 -8 -14 -15 -7 -20 5 -3 7 -11 4 -17 -4 -6 -3 -9 2 -6
47 21 64 33 61 41 -5 16 -40 17 -60 2z"/>
<path d="M4335 321 c-3 -5 -1 -12 5 -16 5 -3 10 1 10 9 0 18 -6 21 -15 7z"/>
<path d="M2040 279 c0 -11 -9 -34 -21 -50 -26 -38 -11 -37 25 0 17 17 25 34
21 41 -4 7 -1 16 6 21 10 6 8 9 -8 9 -17 0 -23 -6 -23 -21z"/>
<path d="M2708 283 c-18 -5 -26 -33 -9 -33 5 0 16 -3 25 -6 11 -4 16 0 16 14
0 24 -8 30 -32 25z"/>
<path d="M3525 271 c-16 -4 -41 -13 -55 -21 -17 -9 -25 -10 -28 -2 -7 21 -50
-39 -57 -78 -9 -55 22 -107 39 -64 3 8 1 24 -4 34 -14 27 -13 34 13 61 32 33
57 46 103 55 51 9 79 24 44 23 -14 -1 -38 -4 -55 -8z"/>
<path d="M208 263 c-36 -4 -48 -15 -29 -27 10 -7 71 16 71 26 0 4 -1 7 -2 6
-2 -1 -20 -3 -40 -5z"/>
<path d="M264 251 c0 -15 3 -17 13 -9 7 6 13 14 13 19 0 5 -6 9 -13 9 -7 0
-13 -9 -13 -19z"/>
<path d="M2610 266 c0 -2 9 -6 20 -9 11 -3 18 -1 14 4 -5 9 -34 13 -34 5z"/>
<path d="M40 246 l-45 -11 49 -3 c50 -3 67 2 50 17 -5 4 -29 3 -54 -3z"/>
<path d="M663 233 c9 -2 23 -2 30 0 6 3 -1 5 -18 5 -16 0 -22 -2 -12 -5z"/>
<path d="M2947 216 c-3 -7 -3 -32 0 -55 5 -35 7 -39 18 -24 7 9 11 26 10 37
-1 12 -3 29 -4 39 -1 20 -17 23 -24 3z"/>
<path d="M1070 206 c0 -9 5 -16 10 -16 6 0 10 4 10 9 0 6 -4 13 -10 16 -5 3
-10 -1 -10 -9z"/>
<path d="M575 191 c-3 -6 -11 -9 -16 -6 -5 4 -9 2 -9 -4 0 -18 17 -21 30 -6 7
9 10 18 7 21 -3 3 -8 0 -12 -5z"/>
<path d="M290 180 c0 -5 5 -10 10 -10 6 0 10 5 10 10 0 6 -4 10 -10 10 -5 0
-10 -4 -10 -10z"/>
<path d="M4370 160 c-6 -11 -8 -24 -5 -29 7 -13 43 -2 49 16 14 35 -26 46 -44
13z"/>
<path d="M380 161 c-21 -6 -22 -8 -7 -14 19 -7 47 1 47 14 0 10 -4 10 -40 0z"/>
<path d="M3635 120 c3 -5 8 -10 11 -10 2 0 4 5 4 10 0 6 -5 10 -11 10 -5 0 -7
-4 -4 -10z"/>
<path d="M4280 115 c0 -27 18 -45 45 -44 11 0 14 3 8 6 -7 2 -13 12 -13 21 0
8 -3 12 -7 9 -3 -4 -12 1 -19 11 -12 16 -13 16 -14 -3z"/>
</g>
</svg>
